<?xml version="1.0" standalone="no"?>
<!DOCTYPE svg PUBLIC "-//W3C//DTD SVG 1.1//EN" "http://www.w3.org/Graphics/SVG/1.1/DTD/svg11.dtd" >
<svg xmlns="http://www.w3.org/2000/svg" xmlns:xlink="http://www.w3.org/1999/xlink" version="1.1">
<metadata>
Created by FontForge 20170731 at Thu Jan  3 18:21:50 2002
 By Aleksey,,,
Copyright Hans Reichel, 1996. Published by FontShop International FontFont release 17
</metadata>
<defs>
<font id="Dax-Bold" horiz-adv-x="564" >
  <font-face 
    font-family="Dax-Bold"
    font-weight="5"
    font-stretch="normal"
    units-per-em="1000"
    panose-1="0 0 0 0 0 0 0 0 0 0"
    ascent="800"
    descent="-200"
    x-height="539"
    cap-height="688"
    bbox="-106 -232 1188 910"
    underline-thickness="50"
    underline-position="-175"
    unicode-range="U+0020-F002"
  />
<missing-glyph horiz-adv-x="785" 
d="M49 0v785h687v-785h-687zM687 49v687h-589v-687h589z" />
    <glyph glyph-name=".notdef" horiz-adv-x="785" 
d="M49 0v785h687v-785h-687zM687 49v687h-589v-687h589z" />
    <glyph glyph-name=".null" horiz-adv-x="0" 
 />
    <glyph glyph-name="nonmarkingreturn" horiz-adv-x="268" 
 />
    <glyph glyph-name="space" unicode=" " horiz-adv-x="268" 
 />
    <glyph glyph-name="exclam" unicode="!" horiz-adv-x="331" 
d="M235 247h-119l-34 441h186zM175 -8q-38 0 -63.5 25.5t-25.5 63.5q0 36 26 62t63 26t63 -25t26 -63q0 -37 -26 -63t-63 -26z" />
    <glyph glyph-name="quotedbl" unicode="&#x22;" horiz-adv-x="442" 
d="M357 387h-80l-27 280q25 31 68 31t67 -31zM163 387h-79l-27 280q24 31 67 31t67 -31z" />
    <glyph glyph-name="numbersign" unicode="#" 
d="M428 416l-22 -126h87v-75h-100l-36 -215h-87l37 215h-98l-38 -215h-86l37 214h-86v76h99l22 125h-86v76h99l34 197h86l-34 -197h99l33 197h87l-34 -197h87v-75h-100zM243 416l-22 -126h98l23 126h-99z" />
    <glyph glyph-name="dollar" unicode="$" 
d="M297 -2l12 -130h-89l11 126q-55 0 -91 9.5t-66 27.5l36 108q21 -13 49.5 -22t61.5 -9q42 0 67.5 23.5t25.5 64.5q0 35 -22.5 58.5t-81 49t-94.5 71.5t-36 111q0 78 47 135.5t129 70.5l-11 121h86l-10 -119q41 0 71 -9.5t57 -27.5l-31 -90q-20 12 -45.5 20t-54.5 8
q-39 0 -63.5 -22.5t-24.5 -60.5q0 -37 23 -60t87 -53.5t99.5 -77.5t35.5 -115q0 -80 -48.5 -136.5t-129.5 -71.5z" />
    <glyph glyph-name="percent" unicode="%" horiz-adv-x="888" 
d="M679 -10q-85 0 -119 69.5t-34 167.5t34 167.5t119 69.5t118.5 -69.5t33.5 -167.5t-33.5 -167.5t-118.5 -69.5zM364 -10l-76 19l235 688l76 -19zM209 224q-85 0 -118.5 69.5t-33.5 166.5q0 100 33 169t119 69q85 0 119 -69.5t34 -168.5q0 -98 -34 -167t-119 -69zM679 398
q-32 0 -42.5 -44.5t-10.5 -122.5q0 -83 10 -124.5t43 -41.5q31 0 41.5 44t10.5 122q0 100 -13.5 133.5t-38.5 33.5zM209 632q-31 0 -41.5 -44.5t-10.5 -123.5q0 -81 10 -123t42 -42t42.5 43.5t10.5 121.5q0 83 -10 125.5t-43 42.5z" />
    <glyph glyph-name="ampersand" unicode="&#x26;" horiz-adv-x="648" 
d="M540 383v-352q-33 -18 -89 -29.5t-131 -11.5q-132 0 -205 51.5t-73 150.5q0 73 42.5 120t109.5 70q-53 23 -81.5 60.5t-28.5 87.5q0 75 57.5 121.5t154.5 46.5q55 0 98 -10.5t72 -29.5l-45 -90q-19 10 -41.5 16t-49.5 6q-44 0 -67 -20t-23 -55q0 -36 28.5 -57.5
t73.5 -21.5q55 0 121.5 20.5t138.5 56.5l45 -92q-48 -24 -107 -38zM387 355q-96 -22 -137.5 -56t-41.5 -97q0 -56 29 -85t91 -29q38 0 59 9v258z" />
    <glyph glyph-name="quotesingle" unicode="'" horiz-adv-x="249" 
d="M164 387h-79l-28 280q24 31 68 31t67 -31z" />
    <glyph glyph-name="parenleft" unicode="(" horiz-adv-x="398" 
d="M303 -228q-132 138 -190.5 260t-58.5 254q0 131 58.5 253t190.5 260l73 -41q-75 -105 -117 -222.5t-42 -249.5q0 -130 42 -249t117 -224z" />
    <glyph glyph-name="parenright" unicode=")" horiz-adv-x="398" 
d="M95 -228l-73 41q77 108 118.5 224t41.5 249q0 131 -42 248t-118 224l73 41q132 -138 190.5 -259t58.5 -254q0 -132 -58.5 -254t-190.5 -260z" />
    <glyph glyph-name="asterisk" unicode="*" horiz-adv-x="461" 
d="M360 604q-22 0 -38.5 16.5t-16.5 40.5t16 40t40 16q22 0 38 -16t16 -40q0 -23 -16 -40t-39 -17zM230 699q-22 0 -38 16t-16 40t16 40t39 16q22 0 38.5 -16.5t16.5 -39.5q0 -24 -16 -40t-40 -16zM230 574q-19 0 -31.5 12.5t-12.5 32.5q0 19 13 32t32 13t31.5 -12.5
t12.5 -32.5q0 -19 -13 -32t-32 -13zM313 454q-21 0 -38 16t-17 39q0 24 16 40t40 16q22 0 38 -16t16 -40q0 -23 -16 -39t-39 -16zM101 605q-23 0 -39 16t-16 40t16 40t39 16q22 0 38.5 -16.5t16.5 -39.5q0 -24 -16 -40t-39 -16zM147 454q-21 0 -38 16t-17 39q0 24 16.5 40.5
t38.5 16.5q23 0 39 -16t16 -41q0 -23 -16 -39t-39 -16z" />
    <glyph glyph-name="plus" unicode="+" 
d="M332 282v-158h-100v158h-153v100h153v157h100v-157h153v-100h-153z" />
    <glyph glyph-name="comma" unicode="," horiz-adv-x="303" 
d="M92 -169h-91l93 288q14 21 37 33.5t55 12.5q31 0 46.5 -12.5t18.5 -33.5z" />
    <glyph glyph-name="hyphen" unicode="-" horiz-adv-x="356" 
d="M48 278v115h260v-115h-260z" />
    <glyph glyph-name="period" unicode="." horiz-adv-x="281" 
d="M140 -8q-36 0 -62 26t-26 63t25 63t63 26q37 0 63 -26t26 -63t-26 -63t-63 -26z" />
    <glyph glyph-name="slash" unicode="/" horiz-adv-x="582" 
d="M103 -231l-95 46l471 983l95 -46z" />
    <glyph glyph-name="zero" unicode="0" 
d="M282 -10q-127 0 -181.5 106t-54.5 248t54 248t182 106q127 0 181.5 -106t54.5 -248t-54 -248t-182 -106zM282 601q-50 0 -68.5 -69.5t-18.5 -185.5q0 -120 18 -186.5t69 -66.5q50 0 68.5 68.5t18.5 184.5q0 120 -18 187.5t-69 67.5z" />
    <glyph glyph-name="one" unicode="1" 
d="M255 0v524q-23 -11 -70.5 -22t-91.5 -11l-19 94q90 10 148.5 39.5t78.5 63.5h113v-688h-159z" />
    <glyph glyph-name="two" unicode="2" 
d="M29 0l234 339q34 50 47 83t13 64q0 99 -112 99q-41 0 -69 -7t-54 -20l-37 99q34 18 82 29.5t113 11.5q123 0 181.5 -57t58.5 -136q0 -43 -21 -89t-70 -108l-140 -179h235v-129h-461z" />
    <glyph glyph-name="three" unicode="3" 
d="M234 -10q-68 0 -116 9.5t-86 29.5l41 106q25 -13 58 -21t76 -8q56 0 88.5 27.5t32.5 75.5q0 62 -47 86t-121 24v82q74 8 113.5 36.5t39.5 74.5q0 37 -25.5 56.5t-70.5 19.5q-38 0 -70.5 -7.5t-57.5 -19.5l-38 98q33 17 82.5 28t109.5 11q105 0 165.5 -45t60.5 -123
q0 -51 -33 -87.5t-76 -54.5q64 -24 100.5 -65.5t36.5 -114.5q0 -98 -73 -158t-190 -60z" />
    <glyph glyph-name="four" unicode="4" 
d="M468 136v-136h-147v136h-273v92l267 460h153v-467h52v-85h-52zM274 442l-128 -221h175v218q0 44 0.5 64t2.5 38q-8 -18 -19 -41t-31 -58z" />
    <glyph glyph-name="five" unicode="5" 
d="M242 -10q-66 0 -115.5 10t-86.5 29l41 106q25 -14 58 -22t77 -8q53 0 87 27.5t34 76.5q0 52 -38.5 84.5t-126.5 32.5q-42 0 -96 -9l39 371h360v-129h-251l-12 -146q151 0 222 -53.5t71 -151.5q0 -94 -73.5 -156t-189.5 -62z" />
    <glyph glyph-name="six" unicode="6" 
d="M286 -10q-121 0 -178.5 75.5t-57.5 191.5q0 137 63.5 233t147 145.5t149.5 59.5l40 -103q-67 -18 -129 -60t-97 -120q32 10 66 10q96 0 162.5 -50t66.5 -161q0 -99 -63 -160t-170 -61zM257 344q-20 0 -30.5 -2.5t-25.5 -8.5q-5 -20 -6 -35.5t-1 -45.5q0 -71 22 -116
t71 -45q44 0 64.5 37t20.5 92q0 124 -115 124z" />
    <glyph glyph-name="seven" unicode="7" 
d="M451 477q-60 -149 -104 -275t-60 -202h-190l251 559h-295v129h484z" />
    <glyph glyph-name="eight" unicode="8" 
d="M282 -10q-103 0 -169.5 48t-66.5 134q0 58 33 100.5t105 84.5q-62 39 -90 77.5t-28 90.5q0 77 61 125t155 48q93 0 154.5 -47.5t61.5 -124.5q0 -93 -118 -163q70 -43 104 -88t34 -102q0 -82 -65.5 -132.5t-170.5 -50.5zM285 611q-39 0 -63 -23t-24 -59q0 -35 18.5 -58.5
t69.5 -56.5q50 31 68.5 55.5t18.5 58.5q0 35 -25 59t-63 24zM279 304q-59 -34 -78.5 -61.5t-19.5 -66.5q0 -37 28.5 -63.5t70.5 -26.5q41 0 68 25t27 63q0 39 -19 66.5t-77 63.5z" />
    <glyph glyph-name="nine" unicode="9" 
d="M154 -10l-40 103q67 18 129 60t97 120q-32 -10 -66 -10q-95 0 -162 50.5t-67 161.5q0 98 64 159t172 61q121 0 177 -74.5t56 -192.5q0 -137 -63.5 -233t-147 -145.5t-149.5 -59.5zM275 599q-44 0 -64.5 -36.5t-20.5 -91.5q0 -124 115 -124q19 0 28 2t29 8q7 35 7 82
q0 70 -22 115t-72 45z" />
    <glyph glyph-name="colon" unicode=":" horiz-adv-x="281" 
d="M140 307q-36 0 -62 26t-26 63t25 63t63 26q37 0 63 -26t26 -63t-26 -63t-63 -26zM140 -8q-36 0 -62 26t-26 63t25 63t63 26q37 0 63 -26t26 -63t-26 -63t-63 -26z" />
    <glyph glyph-name="semicolon" unicode=";" horiz-adv-x="303" 
d="M162 307q-37 0 -63 26t-26 63t26 63t63 26t63 -26t26 -63t-26 -63t-63 -26zM92 -169h-91l93 288q15 22 37 34.5t54 12.5q31 0 47 -13t19 -34z" />
    <glyph glyph-name="less" unicode="&#x3c;" 
d="M79 287v92l406 170v-109l-283 -107l283 -108v-108z" />
    <glyph glyph-name="equal" unicode="=" 
d="M79 386v100h406v-100h-406zM79 177v100h406v-100h-406z" />
    <glyph glyph-name="greater" unicode="&#x3e;" 
d="M79 117v108l283 108l-283 107v109l406 -170v-92z" />
    <glyph glyph-name="question" unicode="?" horiz-adv-x="450" 
d="M290 359l-10 -112h-118l-16 157q56 11 92 38.5t36 67.5q0 36 -24 58t-74 22q-30 0 -53.5 -6.5t-46.5 -18.5l-40 93q32 17 77.5 28t94.5 11q107 0 168.5 -46t61.5 -125q0 -64 -45.5 -106t-102.5 -61zM221 -8q-37 0 -63 26t-26 63t26 63t63 26t63 -26t26 -63t-26 -63
t-63 -26z" />
    <glyph glyph-name="at" unicode="@" horiz-adv-x="868" 
d="M580 66q-37 0 -55 19t-25 63q-60 -81 -146 -81q-64 0 -97 46.5t-33 114.5q0 96 59 186t154 90q39 0 65.5 -19t46.5 -57l13 58h72l-43 -193q-6 -25 -12 -55t-6 -57q0 -53 30 -53q58 0 102 97.5t44 186.5q0 109 -67 173t-175 64q-166 0 -278.5 -128t-112.5 -295
q0 -142 88.5 -221.5t229.5 -79.5q111 0 189 38t147 109l34 -43q-75 -78 -162 -117.5t-210 -39.5q-172 0 -277 94.5t-105 261.5q0 191 135 331t329 140q134 0 217 -77t83 -208q0 -120 -64 -234t-170 -114zM442 442q-64 0 -101.5 -72t-37.5 -141q0 -45 22 -72t57 -27
q62 0 101 72.5t39 137.5q0 46 -22 74t-58 28z" />
    <glyph glyph-name="A" unicode="A" horiz-adv-x="613" 
d="M442 0l-42 147h-207l-44 -147h-145l224 688h158l223 -688h-167zM317 464q-9 33 -11.5 50.5t-4.5 32.5q-2 -14 -5 -26.5t-15 -56.5l-64 -224h161z" />
    <glyph glyph-name="B" unicode="B" horiz-adv-x="600" 
d="M285 -10q-142 0 -220 40v628q36 19 91 29.5t121 10.5q130 0 197.5 -51t67.5 -132q0 -61 -37.5 -100.5t-85.5 -51.5q54 -16 98.5 -62t44.5 -111q0 -100 -72.5 -150t-204.5 -50zM278 607q-12 0 -25.5 -0.5t-33.5 -7.5v-203h32q76 0 106 25t30 83q0 103 -109 103zM251 318
h-32v-221q12 -4 27 -7t35 -3q60 0 89.5 25t29.5 84q0 64 -33 93t-116 29z" />
    <glyph glyph-name="C" unicode="C" horiz-adv-x="491" 
d="M315 -10q-132 0 -201.5 102t-69.5 252q0 149 70 251.5t202 102.5q95 0 149 -40l-33 -98q-16 10 -34.5 15.5t-46.5 5.5q-74 0 -107 -67t-33 -169q0 -97 34.5 -164t104.5 -67q28 0 43.5 4.5t35.5 16.5l37 -104q-53 -41 -151 -41z" />
    <glyph glyph-name="D" unicode="D" horiz-adv-x="618" 
d="M272 -10q-68 0 -118 10t-89 30v628q40 19 89 29.5t110 10.5q160 0 235 -95t75 -256q0 -162 -72 -259.5t-230 -97.5zM271 592q-28 0 -46 -7v-476q21 -7 48 -7q74 0 105.5 57t31.5 191q0 129 -32 185.5t-107 56.5z" />
    <glyph glyph-name="E" unicode="E" horiz-adv-x="459" 
d="M65 0v688h352v-109h-189v-175h165v-106h-165v-189h189v-109h-352z" />
    <glyph glyph-name="F" unicode="F" horiz-adv-x="453" 
d="M228 579v-175h164v-106h-164v-298h-163v688h351v-109h-188z" />
    <glyph glyph-name="G" unicode="G" horiz-adv-x="610" 
d="M356 -10q-153 0 -232.5 94.5t-79.5 262.5q0 159 85 255t232 96q61 0 103.5 -9.5t78.5 -30.5l-47 -100q-18 11 -47 18t-69 7q-84 0 -128 -58.5t-44 -181.5q0 -118 37 -179.5t102 -61.5q18 0 30.5 2.5t20.5 7.5v195h-82v97h234v-374q-36 -21 -79.5 -30.5t-114.5 -9.5z" />
    <glyph glyph-name="H" unicode="H" horiz-adv-x="630" 
d="M402 0v298h-174v-298h-163v688h163v-284h174v284h163v-688h-163z" />
    <glyph glyph-name="I" unicode="I" horiz-adv-x="296" 
d="M67 0v688h162v-688h-162z" />
    <glyph glyph-name="J" unicode="J" horiz-adv-x="296" 
d="M-37 -220v112q45 8 74.5 44t29.5 94v658h162v-642q0 -125 -74.5 -195.5t-191.5 -70.5z" />
    <glyph glyph-name="K" unicode="K" horiz-adv-x="591" 
d="M400 0l-170 341l-2 -341h-161v688h161v-310l175 310h166l-195 -316l208 -372h-182z" />
    <glyph glyph-name="L" unicode="L" horiz-adv-x="434" 
d="M67 0v688h162v-579h175v-109h-337z" />
    <glyph glyph-name="M" unicode="M" horiz-adv-x="799" 
d="M606 0l-34 396q-2 25 -2.5 46.5t-0.5 37.5q-4 -15 -7 -28t-16.5 -58t-35 -120t-46.5 -162t-34 -112h-81q-6 17 -28 92.5t-48 165t-37 128t-16.5 62t-7.5 32.5q0 -15 -0.5 -31.5t-3.5 -52.5l-35 -396h-134l73 688h158l107 -385q7 -23 11.5 -46t6.5 -31q4 13 9 32.5
t12 44.5l113 385h157l74 -688h-154z" />
    <glyph glyph-name="N" unicode="N" horiz-adv-x="654" 
d="M464 0l-229 386q-13 22 -22.5 43t-13.5 29q1 -14 1.5 -32.5t0.5 -42.5v-383h-136v688h143l211 -353q16 -27 24 -43t11 -23q-1 13 -1.5 29.5t-0.5 39.5v350h137v-688h-125z" />
    <glyph glyph-name="O" unicode="O" horiz-adv-x="626" 
d="M313 -10q-136 0 -202.5 98.5t-66.5 255.5q0 158 66 256t203 98q136 0 202.5 -98.5t66.5 -255.5q0 -158 -66 -256t-203 -98zM313 591q-59 0 -81.5 -68t-22.5 -173q0 -107 22 -174t82 -67t82 67t22 174t-22.5 174t-81.5 67z" />
    <glyph glyph-name="P" unicode="P" horiz-adv-x="573" 
d="M246 257l-22 2v-259h-159v658q38 19 91.5 29.5t117.5 10.5q136 0 200.5 -60.5t64.5 -159.5q0 -97 -61.5 -160t-186.5 -63q-13 0 -24.5 0.5t-20.5 1.5zM273 606q-31 0 -49 -8v-246l22 -1q76 0 107.5 29.5t31.5 98.5q0 66 -25.5 96.5t-86.5 30.5z" />
    <glyph glyph-name="Q" unicode="Q" horiz-adv-x="626" 
d="M461 35l108 -132l-118 -104l-89 198q-23 -5 -49 -5q-136 0 -202.5 98t-66.5 255t66 255t203 98t203 -98t66 -255q0 -104 -29.5 -184t-91.5 -126zM313 591q-60 0 -82 -66.5t-22 -173.5q0 -109 21.5 -175t82.5 -66q60 0 82 67.5t22 173.5t-22 173t-82 67z" />
    <glyph glyph-name="R" unicode="R" horiz-adv-x="591" 
d="M391 0l-163 304l-2 -304h-160v658q39 19 92 29.5t115 10.5q136 0 204 -56.5t68 -158.5q0 -67 -45 -115.5t-114 -59.5l183 -308h-178zM273 606q-25 0 -47 -9v-252q12 -4 35 -4q62 0 93.5 35t31.5 99q0 68 -25 99.5t-88 31.5z" />
    <glyph glyph-name="S" unicode="S" horiz-adv-x="484" 
d="M211 -10q-65 0 -106.5 10t-73.5 31l37 113q21 -14 48.5 -23t62.5 -9q42 0 67 22t25 60q0 34 -21 56t-84.5 50.5t-95.5 79t-32 106.5q0 90 60 151t158 61q55 0 93.5 -10t67.5 -30l-34 -99q-22 14 -47 22t-56 8q-83 0 -83 -79q0 -35 22 -57t92.5 -53.5t100.5 -80.5t30 -113
q0 -93 -64.5 -154.5t-166.5 -61.5z" />
    <glyph glyph-name="T" unicode="T" horiz-adv-x="465" 
d="M314 579v-579h-163v579h-120v109h402v-109h-119z" />
    <glyph glyph-name="U" unicode="U" horiz-adv-x="608" 
d="M304 -11q-105 0 -172 58t-67 156v485h163v-484q0 -44 23 -68t60 -24t59.5 23.5t22.5 69.5v483h150v-485q0 -97 -66.5 -155.5t-172.5 -58.5z" />
    <glyph glyph-name="V" unicode="V" horiz-adv-x="568" 
d="M356 0h-141l-208 688h172l96 -400q6 -23 10 -48t6 -36q3 18 7 39.5t10 44.5l99 400h156z" />
    <glyph glyph-name="W" unicode="W" horiz-adv-x="840" 
d="M666 0h-143l-89 362q-6 24 -8.5 41.5l-4.5 31.5q-1 -7 -2.5 -18t-11.5 -55l-87 -362h-144l-155 688h160l72 -402q4 -23 6 -46t4 -32q3 15 6 34.5t9 43.5l91 402h116l89 -402q5 -26 7.5 -47.5t4.5 -30.5q2 15 4.5 32.5t7.5 45.5l75 402h147z" />
    <glyph glyph-name="X" unicode="X" horiz-adv-x="558" 
d="M370 0l-96 224l-101 -224h-166l183 351l-165 337h173l83 -206l99 206h155l-171 -318l187 -370h-181z" />
    <glyph glyph-name="Y" unicode="Y" horiz-adv-x="531" 
d="M346 289v-289h-162v289l-182 399h170l99 -260l106 260h153z" />
    <glyph glyph-name="Z" unicode="Z" horiz-adv-x="472" 
d="M17 0l215 579h-192v109h393l-207 -579h211v-109h-420z" />
    <glyph glyph-name="bracketleft" unicode="[" horiz-adv-x="366" 
d="M64 -215v1000h265v-88h-128v-823h128v-89h-265z" />
    <glyph glyph-name="backslash" unicode="\" horiz-adv-x="584" 
d="M480 -232l-472 983l96 47l472 -983z" />
    <glyph glyph-name="bracketright" unicode="]" horiz-adv-x="366" 
d="M37 -215v89h128v823h-128v88h265v-1000h-265z" />
    <glyph glyph-name="asciicircum" unicode="^" horiz-adv-x="613" 
d="M470 393l-163 182l-164 -182l-62 60l160 211q26 33 66 33q39 0 65 -33l160 -211z" />
    <glyph glyph-name="underscore" unicode="_" 
d="M-10 -221v95h584v-95h-584z" />
    <glyph glyph-name="grave" unicode="`" horiz-adv-x="248" 
d="M124 594l-129 140q5 12 22 18.5t41 6.5q48 0 83 -21l68 -144h-85z" />
    <glyph glyph-name="a" unicode="a" horiz-adv-x="540" 
d="M270 -10q-236 0 -236 170q0 96 80 139t221 56v25q0 40 -24.5 56t-70.5 16q-37 0 -72 -9t-68 -24l-34 89q47 20 102.5 30.5t100.5 10.5q100 0 156 -46t56 -151v-322q-35 -19 -89 -29.5t-122 -10.5zM335 283q-80 -8 -117.5 -32t-37.5 -85q0 -46 25 -68t73 -22q35 0 57 11
v196z" />
    <glyph glyph-name="b" unicode="b" horiz-adv-x="570" 
d="M254 -10q-69 0 -117.5 10.5t-77.5 29.5v755h156v-259q19 9 43.5 14.5t56.5 5.5q95 0 155 -71.5t60 -189.5q0 -142 -71.5 -218.5t-204.5 -76.5zM271 457q-33 0 -56 -12v-353q19 -8 48 -8q58 0 85.5 49t27.5 142q0 87 -23 134.5t-82 47.5z" />
    <glyph glyph-name="c" unicode="c" horiz-adv-x="420" 
d="M262 -10q-99 0 -160.5 74t-61.5 207q0 131 63 204.5t158 73.5q45 0 78 -11t54 -28l-32 -86q-13 10 -27 15.5t-37 5.5q-50 0 -75 -44t-25 -128q0 -82 26 -127t73 -45q40 0 65 22l33 -94q-19 -18 -51 -28.5t-81 -10.5z" />
    <glyph glyph-name="d" unicode="d" horiz-adv-x="570" 
d="M305 -10q-125 0 -195 71t-70 205q0 128 65.5 203.5t171.5 75.5q28 0 43 -2t36 -7v249h155v-755q-38 -20 -86.5 -30t-119.5 -10zM356 452q-20 6 -43 6q-62 0 -90.5 -48.5t-28.5 -136.5q0 -90 27.5 -137t86.5 -47q33 0 48 8v355z" />
    <glyph glyph-name="e" unicode="e" horiz-adv-x="551" 
d="M188 215q16 -118 130 -118q43 0 79.5 8t60.5 21l35 -97q-34 -17 -82.5 -28t-110.5 -11q-123 0 -191.5 75t-68.5 206q0 128 64 203t179 75t171.5 -74t56.5 -214zM277 457q-99 0 -99 -166l188 28q0 71 -22.5 104.5t-66.5 33.5z" />
    <glyph glyph-name="f" unicode="f" horiz-adv-x="353" 
d="M247 438v-438h-156v438h-59v101h59v55q0 92 53 142t147 50h24q11 -2 15 -2v-99q-43 0 -63 -16.5t-20 -61.5v-68h83v-101h-83z" />
    <glyph glyph-name="g" unicode="g" horiz-adv-x="567" 
d="M272 -227q-129 0 -201 40l40 101q27 -15 60.5 -23.5t72.5 -8.5q59 0 85.5 26t26.5 75v30q-14 -8 -38 -12.5t-56 -4.5q-98 0 -160 70.5t-62 189.5q0 138 70 215.5t207 77.5q62 0 111.5 -11t79.5 -29v-513q0 -111 -63.5 -167t-172.5 -56zM356 450q-18 9 -49 9
q-113 0 -113 -194q0 -94 25.5 -137t84.5 -43q31 0 52 13v352z" />
    <glyph glyph-name="h" unicode="h" horiz-adv-x="576" 
d="M361 0v375q0 35 -18.5 55.5t-61.5 20.5q-37 0 -66 -15v-436h-156v785h156v-264q56 25 116 25q95 0 140.5 -47t45.5 -121v-378h-156z" />
    <glyph glyph-name="i" unicode="i" horiz-adv-x="280" 
d="M140 621q-35 0 -59 21t-24 52q0 30 24.5 51.5t58.5 21.5q35 0 59 -21t24 -52t-24 -52t-59 -21zM62 0v539h156v-539h-156z" />
    <glyph glyph-name="j" unicode="j" horiz-adv-x="281" 
d="M141 621q-35 0 -59 21t-24 52q0 30 24.5 51.5t58.5 21.5q35 0 59 -21t24 -53q0 -30 -24 -51t-59 -21zM-26 -225v103q46 15 67.5 50.5t21.5 112.5v498h156v-479q0 -130 -68.5 -207.5t-176.5 -77.5z" />
    <glyph glyph-name="k" unicode="k" horiz-adv-x="547" 
d="M374 0l-155 272l-2 -272h-155v785h155v-484l153 238h156l-169 -242l192 -297h-175z" />
    <glyph glyph-name="l" unicode="l" horiz-adv-x="280" 
d="M62 0v785h156v-785h-156z" />
    <glyph glyph-name="m" unicode="m" horiz-adv-x="879" 
d="M664 0v378q0 33 -19 53t-59 20q-42 0 -68 -26v-425h-156v380q0 33 -21.5 52t-62.5 19q-36 0 -63 -10v-441h-156v509q45 20 97 30t121 10q64 0 104 -14t67 -40q29 24 71.5 39t106.5 15q92 0 143 -48t51 -123v-378h-156z" />
    <glyph glyph-name="n" unicode="n" horiz-adv-x="576" 
d="M361 0v377q0 33 -18 54t-62 21q-22 0 -35 -2.5t-31 -8.5v-441h-156v509q42 19 99 29.5t127 10.5q122 0 177 -45.5t55 -125.5v-378h-156z" />
    <glyph glyph-name="o" unicode="o" horiz-adv-x="556" 
d="M278 -10q-114 0 -176 77.5t-62 202.5t61.5 202t175.5 77t176.5 -77t62.5 -202t-62 -202.5t-176 -77.5zM278 452q-47 0 -65 -48.5t-18 -131.5q0 -82 18 -129t65 -47q48 0 65.5 46.5t17.5 129.5q0 85 -17.5 132.5t-65.5 47.5z" />
    <glyph glyph-name="p" unicode="p" horiz-adv-x="570" 
d="M293 -7q-29 0 -46 2t-32 7v-217h-156v724q39 19 87.5 29.5t118.5 10.5q123 0 194 -71t71 -205q0 -128 -65 -204t-172 -76zM263 457q-27 0 -48 -8v-357q18 -7 41 -7q61 0 90.5 46.5t29.5 139.5q0 94 -26 140t-87 46z" />
    <glyph glyph-name="q" unicode="q" horiz-adv-x="570" 
d="M356 -215v227q-18 -9 -43 -14.5t-54 -5.5q-97 0 -158 71t-61 190q0 135 67 215.5t210 80.5q66 0 113 -10.5t81 -29.5v-724h-155zM356 450q-18 9 -49 9q-113 0 -113 -193q0 -90 25.5 -135t81.5 -45q33 0 55 12v352z" />
    <glyph glyph-name="r" unicode="r" horiz-adv-x="359" 
d="M319 437q-30 12 -59 12q-27 0 -45 -9v-440h-156v509q45 22 110.5 30t178.5 8z" />
    <glyph glyph-name="s" unicode="s" horiz-adv-x="427" 
d="M185 -9q-48 0 -90 11t-68 28l40 99q15 -12 42.5 -21.5t53.5 -9.5q30 0 48.5 16.5t18.5 42.5q0 28 -15 44t-69 37.5t-80 59.5t-26 85q0 70 50 118t130 48q92 0 155 -39l-38 -89q-14 11 -35.5 19.5t-46.5 8.5q-29 0 -45.5 -16t-16.5 -40q0 -44 71.5 -74.5t98.5 -67.5
t27 -90q0 -73 -55.5 -121.5t-149.5 -48.5z" />
    <glyph glyph-name="t" unicode="t" horiz-adv-x="364" 
d="M253 -8q-80 0 -121 44.5t-41 111.5v290h-59v101h59v115l156 40v-155h83v-101h-83v-278q0 -63 50 -63q13 0 33 6v-96q-9 -4 -32.5 -9.5t-44.5 -5.5z" />
    <glyph glyph-name="u" unicode="u" horiz-adv-x="569" 
d="M285 -10q-116 0 -171 45t-55 142v362h156v-373q0 -31 18 -51t56 -20q40 0 65 13v431h156v-507q-38 -19 -95.5 -30.5t-129.5 -11.5z" />
    <glyph glyph-name="v" unicode="v" horiz-adv-x="522" 
d="M338 0h-151l-173 539h165l77 -310q6 -26 8 -49.5t4 -32.5q3 23 4.5 33.5t11.5 48.5l79 310h146z" />
    <glyph glyph-name="w" unicode="w" horiz-adv-x="804" 
d="M636 0h-144l-77 292q-6 23 -8 41t-3 33q-1 -14 -3 -30t-10 -44l-79 -292h-143l-148 539h155l65 -311q6 -28 7.5 -49t2.5 -29q2 13 4.5 31t10.5 47l82 311h128l77 -311q6 -25 8.5 -43.5t4.5 -34.5q1 16 3 32t9 47l69 310h137z" />
    <glyph glyph-name="x" unicode="x" horiz-adv-x="519" 
d="M340 0l-85 172l-90 -172h-158l169 278l-152 261h164l78 -156l85 156h145l-155 -250l171 -289h-172z" />
    <glyph glyph-name="y" unicode="y" horiz-adv-x="522" 
d="M267 -215h-164l86 215l-175 539h165l74 -312q6 -25 7.5 -47.5t3.5 -37.5q3 15 6 35t11 50l82 312h146z" />
    <glyph glyph-name="z" unicode="z" horiz-adv-x="439" 
d="M25 0l183 438h-165v101h358l-174 -438h178v-101h-380z" />
    <glyph glyph-name="braceleft" unicode="{" horiz-adv-x="405" 
d="M123 53v142q0 54 -24 76t-63 22v80q39 0 63 21t24 72v141q0 97 66.5 137.5t170.5 40.5v-78q-55 0 -79 -21t-24 -70v-163q0 -51 -25.5 -81t-69.5 -39q44 -9 69.5 -40.5t25.5 -84.5v-164q0 -47 24 -69t79 -22v-78q-105 0 -171 39.5t-66 138.5z" />
    <glyph glyph-name="bar" unicode="|" horiz-adv-x="249" 
d="M64 -215v1000h121v-1000h-121z" />
    <glyph glyph-name="braceright" unicode="}" horiz-adv-x="405" 
d="M281 195v-142q0 -98 -66 -138t-170 -40v78q54 0 78.5 21.5t24.5 69.5v164q0 53 25.5 84t69.5 39q-45 10 -70 40t-25 82v163q0 48 -24.5 69.5t-78.5 21.5v78q105 0 170.5 -39.5t65.5 -138.5v-141q0 -51 24 -72t64 -21v-80q-40 0 -64 -22t-24 -76z" />
    <glyph glyph-name="asciitilde" unicode="~" horiz-adv-x="613" 
d="M422 274q-5 -1 -15 -1q-34 0 -98 31t-88 31h-12q-35 -4 -57 -23.5t-35 -50.5l-43 97q19 40 45 63.5t67 23.5h17q38 0 96 -31t88 -31h12q37 4 59.5 22t35.5 49l45 -98q-25 -71 -117 -82z" />
    <glyph glyph-name="nonbreakingspace" unicode="&#xa0;" horiz-adv-x="268" 
 />
    <glyph glyph-name="exclamdown" unicode="&#xa1;" horiz-adv-x="331" 
d="M175 303q-37 0 -63 26t-26 63t26 63t63 26t63 -26t26 -63t-26 -63t-63 -26zM82 -215l33 441h119l34 -441h-186z" />
    <glyph glyph-name="cent" unicode="&#xa2;" 
d="M322 106l11 -106h-94l12 110q-78 15 -122.5 76t-44.5 162q0 98 46 158.5t122 75.5l-10 106h91l-9 -102q34 0 58.5 -8t44.5 -23l-30 -76q-12 8 -28 12.5t-35 4.5q-49 0 -74.5 -38.5t-25.5 -107.5q0 -147 100 -147q37 0 63 18l31 -84q-17 -13 -42.5 -22t-63.5 -9z" />
    <glyph glyph-name="sterling" unicode="&#xa3;" 
d="M60 0q51 57 79.5 119t28.5 119q0 19 -2.5 37.5t-8.5 39.5h-98v90h73q-7 28 -11.5 54.5t-4.5 54.5q0 76 55.5 130t160.5 54q59 0 103 -11t71 -28l-34 -95q-17 10 -43 17t-58 7q-54 0 -80.5 -30.5t-26.5 -82.5q0 -33 10 -70h136v-90h-122q4 -18 5 -32t1 -35
q0 -31 -11.5 -66t-23.5 -53h255v-129h-454z" />
    <glyph glyph-name="currency" unicode="&#xa4;" 
d="M468 106l-69 69q-53 -37 -117 -37t-117 37l-69 -69l-51 51l69 69q-37 53 -37 117q0 32 9.5 61.5t27.5 55.5l-69 69l51 51l69 -69q51 37 117 37t117 -37l69 69l51 -51l-69 -69q37 -51 37 -117t-37 -117l69 -69zM282 453q-45 0 -77 -32t-32 -78q0 -45 32 -77t77 -32t77 32
t32 77q0 46 -31 78t-78 32z" />
    <glyph glyph-name="yen" unicode="&#xa5;" 
d="M421 438l98 7v-66l-121 8l-39 -82l160 7v-66l-163 8v-254h-148v254l-164 -8v66l161 -7l-39 82l-122 -8v66l99 -7l-118 250h159l103 -267l110 267h142z" />
    <glyph glyph-name="section" unicode="&#xa7;" 
d="M387 56q33 -31 46.5 -62t13.5 -66q0 -64 -51 -107t-133 -43q-58 0 -93 10t-66 30l35 92q24 -17 48 -24t47 -7q32 0 51.5 14.5t19.5 39.5q0 19 -8 35t-33 37l-110 92q-49 41 -69 81t-20 91q0 53 30.5 95.5t78.5 71.5q-25 26 -37.5 52.5t-12.5 61.5q0 60 47.5 102.5
t125.5 42.5q50 0 87 -10t64 -28l-33 -82q-16 10 -38.5 18t-48.5 8q-30 0 -47.5 -14.5t-17.5 -40.5q0 -22 10 -38.5t41 -42.5l98 -83q49 -42 68.5 -78t19.5 -84q0 -50 -30.5 -91t-82.5 -73zM330 299l-95 81q-25 -16 -41.5 -38t-16.5 -51q0 -53 49 -95l93 -78q28 18 43.5 39
t15.5 48q0 29 -9.5 49t-38.5 45z" />
    <glyph glyph-name="dieresis" unicode="&#xa8;" horiz-adv-x="248" 
d="M221 602q-29 0 -49 17t-20 43q0 25 20 43t49 18q28 0 48.5 -17.5t20.5 -43.5t-20 -43t-49 -17zM26 602q-28 0 -48 17t-20 43q0 25 20 43t48 18t48.5 -17.5t20.5 -43.5t-20 -43t-49 -17z" />
    <glyph glyph-name="copyright" unicode="&#xa9;" horiz-adv-x="802" 
d="M401 -11q-147 0 -251 103t-104 252q0 147 104.5 250.5t250.5 103.5q147 0 251 -103t104 -251q0 -147 -104 -251t-251 -104zM401 638q-123 0 -208 -86t-85 -208t85 -208t208 -86t208 86t85 208q0 121 -85.5 207.5t-207.5 86.5zM404 137q-86 0 -147.5 60.5t-61.5 148.5
q0 87 61 148t148 61q50 0 88 -19t70 -55l-50 -42q-22 24 -49.5 37.5t-58.5 13.5q-59 0 -100.5 -42.5t-41.5 -101.5q0 -60 41 -102t101 -42q62 0 108 51l52 -42q-34 -37 -73 -55.5t-87 -18.5z" />
    <glyph glyph-name="ordfeminine" unicode="&#xaa;" horiz-adv-x="379" 
d="M194 338q-158 0 -158 109q0 64 52 90.5t145 34.5v14q0 44 -59 44q-24 0 -47.5 -5.5t-44.5 -15.5l-23 60q26 10 59.5 18t74.5 8q67 0 103.5 -29t36.5 -97v-205q-25 -12 -59 -19t-80 -7zM233 522q-50 -6 -75 -21t-25 -51q0 -53 64 -53q24 0 36 6v119z" />
    <glyph glyph-name="guillemotleft" unicode="&#xab;" horiz-adv-x="547" 
d="M406 98l-149 236l149 237l85 -50l-118 -187l118 -187zM189 98l-149 236l149 237l84 -50l-117 -187l117 -187z" />
    <glyph glyph-name="logicalnot" unicode="&#xac;" 
d="M381 133v150h-302v100h406v-250h-104z" />
    <glyph glyph-name="registered" unicode="&#xae;" horiz-adv-x="802" 
d="M401 -11q-147 0 -251 103t-104 252q0 147 104.5 250.5t250.5 103.5q147 0 251 -103t104 -251q0 -147 -104 -251t-251 -104zM401 639q-122 0 -207.5 -86.5t-85.5 -208.5t85 -208t208 -86t208 86t85 208q0 121 -85 208t-208 87zM473 146l-117 175h-9v-175h-66v392
q43 23 105 23q69 0 107.5 -34t38.5 -85q0 -48 -28 -77t-77 -38l128 -181h-82zM381 506q-19 0 -34 -5v-135h25q45 0 68.5 17t23.5 58q0 37 -23.5 51t-59.5 14z" />
    <glyph glyph-name="degree" unicode="&#xb0;" horiz-adv-x="415" 
d="M208 385q-66 0 -112 46t-46 112q0 65 46 111t112 46q65 0 111 -46t46 -111t-45.5 -111.5t-111.5 -46.5zM208 627q-35 0 -60 -24t-25 -60q0 -35 25 -60t60 -25q34 0 59 25t25 60q0 36 -24 60t-60 24z" />
    <glyph glyph-name="plusminus" unicode="&#xb1;" 
d="M332 362v-150h-100v150h-153v91h153v149h100v-149h153v-91h-153zM79 67v92h406v-92h-406z" />
    <glyph glyph-name="acute" unicode="&#xb4;" horiz-adv-x="248" 
d="M124 594h-85l68 144q17 11 39 16t46 5q51 0 61 -25z" />
    <glyph glyph-name="mu" unicode="&#xb5;" horiz-adv-x="576" 
d="M335 -9q-33 0 -63.5 7t-56.5 19v-232h-156v754h156v-436q16 -8 33 -12.5t39 -4.5q30 0 44 3t30 11v439h156v-506q-39 -21 -82.5 -31.5t-99.5 -10.5z" />
    <glyph glyph-name="paragraph" unicode="&#xb6;" 
d="M491 619v-834h-95v834h-104v-834h-96v512q-79 13 -126 63t-47 127q0 101 69 151t178 50h255v-69h-34z" />
    <glyph glyph-name="cedilla" unicode="&#xb8;" horiz-adv-x="248" 
d="M-16 -205l27 49q27 -3 51 -3q48 0 75 9t27 25t-24 20.5t-95 4.5l26 43q36 3 64 3q69 0 99 -18t30 -52q0 -41 -52 -63t-144 -22h-40q-29 3 -44 4z" />
    <glyph glyph-name="ordmasculine" unicode="&#xba;" horiz-adv-x="379" 
d="M190 339q-76 0 -118 50t-42 129q0 78 42 128t117 50q76 0 118 -49t42 -129t-41.5 -129.5t-117.5 -49.5zM190 631q-32 0 -43.5 -28.5t-11.5 -82.5t11.5 -82t43.5 -28t43 28t11 81q0 54 -11 83t-43 29z" />
    <glyph glyph-name="guillemotright" unicode="&#xbb;" horiz-adv-x="547" 
d="M359 98l-85 49l117 187l-117 187l85 50l148 -237zM141 98l-85 49l118 187l-118 187l85 50l149 -237z" />
    <glyph glyph-name="questiondown" unicode="&#xbf;" horiz-adv-x="450" 
d="M253 304q-37 0 -63 26t-26 63t26 63t63 26t63 -26t26 -63t-26 -63t-63 -26zM266 -223q-107 0 -168.5 46t-61.5 125q0 64 45.5 106t102.5 61l10 112h118l16 -157q-56 -11 -92 -38.5t-36 -67.5q0 -36 24 -58t74 -22q30 0 53.5 6.5t46.5 18.5l40 -93q-32 -17 -77.5 -28
t-94.5 -11z" />
    <glyph glyph-name="Agrave" unicode="&#xc0;" horiz-adv-x="613" 
d="M270 740l-129 139q5 13 21.5 19t39.5 6q50 0 85 -21l68 -143h-85zM442 0l-42 147h-207l-44 -147h-145l224 688h158l223 -688h-167zM317 464q-9 32 -11.5 50t-4.5 32q-2 -13 -5 -26.5t-15 -55.5l-64 -224h161z" />
    <glyph glyph-name="Aacute" unicode="&#xc1;" horiz-adv-x="613" 
d="M336 740h-86l69 143q17 11 39 16t46 5q50 0 60 -25zM442 0l-42 147h-207l-44 -147h-145l224 688h158l223 -688h-167zM317 464q-9 32 -11.5 50t-4.5 32q-2 -13 -5 -26.5t-15 -55.5l-64 -224h161z" />
    <glyph glyph-name="Acircumflex" unicode="&#xc2;" horiz-adv-x="613" 
d="M413 731l-107 76l-107 -76l-42 38l105 106q19 19 44 19q26 0 45 -19l104 -106zM442 0l-42 147h-207l-44 -147h-145l224 688h158l223 -688h-167zM317 464q-9 32 -11.5 50t-4.5 32q-2 -13 -5 -26.5t-15 -55.5l-64 -224h161z" />
    <glyph glyph-name="Atilde" unicode="&#xc3;" horiz-adv-x="613" 
d="M384 747q-31 -3 -78 18t-71 21q-22 0 -35.5 -13.5t-22.5 -36.5l-32 69q13 28 32.5 43t52.5 15q26 0 72.5 -20t60.5 -20q27 0 42.5 13t24.5 35l33 -70q-17 -47 -79 -54zM442 0l-42 147h-207l-44 -147h-145l224 688h158l223 -688h-167zM317 464q-9 32 -11.5 50t-4.5 32
q-2 -13 -5 -26.5t-15 -55.5l-64 -224h161z" />
    <glyph glyph-name="Adieresis" unicode="&#xc4;" horiz-adv-x="613" 
d="M404 744q-28 0 -48 17t-20 43q0 25 20 43t48 18t48.5 -17.5t20.5 -43.5t-20 -43t-49 -17zM209 744q-28 0 -48 17t-20 43q0 25 20 43t48 18t48.5 -17.5t20.5 -43.5t-20 -43t-49 -17zM442 0l-42 147h-207l-44 -147h-145l224 688h158l223 -688h-167zM317 464q-9 32 -11.5 50
t-4.5 32q-2 -13 -5 -26.5t-15 -55.5l-64 -224h161z" />
    <glyph glyph-name="Aring" unicode="&#xc5;" horiz-adv-x="613" 
d="M306 734q-37 0 -62.5 25.5t-25.5 62.5q0 36 26 62t62 26q37 0 63 -25t26 -63q0 -36 -26 -62t-63 -26zM442 0l-42 147h-207l-44 -147h-145l224 688h158l223 -688h-167zM306 863q-17 0 -29 -12t-12 -29t12 -29t29 -12t29.5 11.5t12.5 29.5q0 17 -12 29t-30 12zM317 464
q-9 32 -11.5 50t-4.5 32q-2 -13 -5 -26.5t-15 -55.5l-64 -224h161z" />
    <glyph glyph-name="AE" unicode="&#xc6;" horiz-adv-x="758" 
d="M430 0l-29 147h-208l-57 -147h-146l288 688h384v-109h-208l42 -175h166v-106h-143l45 -189h168v-109h-302zM347 476q-4 24 -5 39.5t-2 28.5q-4 -13 -8 -27.5t-14 -40.5l-88 -234h160z" />
    <glyph glyph-name="Ccedilla" unicode="&#xc7;" horiz-adv-x="491" 
d="M315 -10q-132 0 -201.5 102t-69.5 252q0 149 70 251.5t202 102.5q95 0 149 -40l-33 -98q-16 10 -34.5 15.5t-46.5 5.5q-74 0 -107 -67t-33 -169q0 -97 34.5 -164t104.5 -67q28 0 43.5 4.5t35.5 16.5l37 -104q-53 -41 -151 -41zM133 -205l27 49q27 -3 51 -3q47 0 74.5 9
t27.5 25t-24 20.5t-96 4.5l26 43q36 3 64 3q69 0 99.5 -18t30.5 -52q0 -41 -52 -63t-144 -22h-40q-29 3 -44 4z" />
    <glyph glyph-name="Egrave" unicode="&#xc8;" horiz-adv-x="458" 
d="M223 740l-129 139q5 13 21.5 19t39.5 6q50 0 85 -21l68 -143h-85zM65 0v688h352v-109h-189v-175h165v-106h-165v-189h189v-109h-352z" />
    <glyph glyph-name="Eacute" unicode="&#xc9;" horiz-adv-x="458" 
d="M258 740h-85l68 143q17 11 39 16t46 5q51 0 61 -25zM65 0v688h352v-109h-189v-175h165v-106h-165v-189h189v-109h-352z" />
    <glyph glyph-name="Ecircumflex" unicode="&#xca;" horiz-adv-x="458" 
d="M340 731l-106 76l-107 -76l-43 38l105 106q19 19 44 19q26 0 45 -19l105 -106zM65 0v688h352v-109h-189v-175h165v-106h-165v-189h189v-109h-352z" />
    <glyph glyph-name="Edieresis" unicode="&#xcb;" horiz-adv-x="458" 
d="M336 744q-29 0 -49 17t-20 43q0 25 20 43t49 18q28 0 48.5 -17.5t20.5 -43.5t-20 -43t-49 -17zM141 744q-28 0 -48 17t-20 43q0 25 20 43t48 18t48.5 -17.5t20.5 -43.5t-20 -43t-49 -17zM66 0v688h351v-109h-189v-175h165v-106h-165v-189h189v-109h-351z" />
    <glyph glyph-name="Igrave" unicode="&#xcc;" horiz-adv-x="296" 
d="M134 740l-129 139q5 13 21.5 19t39.5 6q50 0 85 -21l68 -143h-85zM66 0v688h163v-688h-163z" />
    <glyph glyph-name="Iacute" unicode="&#xcd;" horiz-adv-x="296" 
d="M162 740h-85l68 143q17 11 39 16t46 5q51 0 61 -25zM67 0v688h162v-688h-162z" />
    <glyph glyph-name="Icircumflex" unicode="&#xce;" horiz-adv-x="296" 
d="M255 731l-107 76l-107 -76l-42 38l105 106q18 18 44 18t44 -18l105 -106zM67 0v688h162v-688h-162z" />
    <glyph glyph-name="Idieresis" unicode="&#xcf;" horiz-adv-x="296" 
d="M245 744q-28 0 -48 17t-20 43q0 25 20 43t48 18t48.5 -17.5t20.5 -43.5t-20 -43t-49 -17zM50 744q-28 0 -48 17t-20 43q0 25 20 43t48 18t48.5 -17.5t20.5 -43.5t-20 -43t-49 -17zM66 0v688h162v-688h-162z" />
    <glyph glyph-name="Ntilde" unicode="&#xd1;" horiz-adv-x="654" 
d="M402 747h-10q-27 0 -70 19.5t-67 19.5q-22 0 -35.5 -13.5t-22.5 -36.5l-32 69q12 28 31.5 43t53.5 15q28 0 72 -20t61 -20q27 0 42 12.5t25 35.5l33 -70q-10 -26 -29 -40t-52 -14zM464 0l-229 386q-13 22 -22.5 43t-13.5 29q1 -14 1.5 -32.5t0.5 -42.5v-383h-136v688h143
l211 -353q16 -27 24 -43t11 -23q-1 13 -1.5 29.5t-0.5 39.5v350h137v-688h-125z" />
    <glyph glyph-name="Ograve" unicode="&#xd2;" horiz-adv-x="626" 
d="M296 740l-128 139q5 13 21.5 19t39.5 6t45.5 -5.5t38.5 -15.5l69 -143h-86zM313 -10q-136 0 -202.5 98.5t-66.5 255.5q0 158 66 256t203 98q136 0 202.5 -98.5t66.5 -255.5q0 -158 -66 -256t-203 -98zM313 591q-59 0 -81.5 -68t-22.5 -173q0 -107 22 -174t82 -67t82 67
t22 174t-22.5 174t-81.5 67z" />
    <glyph glyph-name="Oacute" unicode="&#xd3;" horiz-adv-x="626" 
d="M327 740h-85l68 143q17 11 39 16t46 5q51 0 61 -25zM313 -10q-136 0 -202.5 98.5t-66.5 255.5q0 158 66 256t203 98q136 0 202.5 -98.5t66.5 -255.5q0 -158 -66 -256t-203 -98zM313 591q-59 0 -81.5 -68t-22.5 -173q0 -107 22 -174t82 -67t82 67t22 174t-22.5 174
t-81.5 67z" />
    <glyph glyph-name="Ocircumflex" unicode="&#xd4;" horiz-adv-x="626" 
d="M420 731l-106 76l-107 -76l-43 38l105 106q19 19 44 19q26 0 45 -19l105 -106zM313 -10q-136 0 -202.5 98.5t-66.5 255.5q0 158 66 256t203 98q136 0 202.5 -98.5t66.5 -255.5q0 -158 -66 -256t-203 -98zM313 591q-59 0 -81.5 -68t-22.5 -173q0 -107 22 -174t82 -67
t82 67t22 174t-22.5 174t-81.5 67z" />
    <glyph glyph-name="Otilde" unicode="&#xd5;" horiz-adv-x="626" 
d="M393 747q-31 -3 -78 18t-71 21q-22 0 -35.5 -13.5t-22.5 -36.5l-32 69q12 28 31.5 43t53.5 15q28 0 72 -20t61 -20q27 0 42.5 13t24.5 35l33 -70q-17 -47 -79 -54zM313 -10q-136 0 -202.5 98.5t-66.5 255.5q0 158 66 256t203 98q136 0 202.5 -98.5t66.5 -255.5
q0 -158 -66 -256t-203 -98zM313 591q-59 0 -81.5 -68t-22.5 -173q0 -107 22 -174t82 -67t82 67t22 174t-22.5 174t-81.5 67z" />
    <glyph glyph-name="Odieresis" unicode="&#xd6;" horiz-adv-x="626" 
d="M410 744q-28 0 -48 17t-20 43q0 25 20 43t48 18q30 0 49.5 -17.5t19.5 -43.5t-20 -43t-49 -17zM216 744q-29 0 -49 17t-20 43q0 25 20 43t49 18q28 0 48.5 -17.5t20.5 -43.5t-20 -43t-49 -17zM313 -10q-136 0 -202.5 98.5t-66.5 255.5q0 158 66 256t203 98
q136 0 202.5 -98.5t66.5 -255.5q0 -158 -66 -256t-203 -98zM313 591q-59 0 -81.5 -68t-22.5 -173q0 -107 22 -174t82 -67t82 67t22 174t-22.5 174t-81.5 67z" />
    <glyph glyph-name="Oslash" unicode="&#xd8;" horiz-adv-x="628" 
d="M315 -10q-50 0 -91 14.5t-72 42.5l-56 -87l-44 28l62 97q-35 48 -52 114.5t-17 144.5q0 157 66.5 255.5t203.5 98.5q48 0 86.5 -14t69.5 -39l53 84l44 -28l-59 -92q37 -47 55.5 -115.5t18.5 -149.5q0 -157 -66 -255.5t-202 -98.5zM315 602q-63 0 -89.5 -70.5
t-26.5 -181.5q0 -33 3 -58.5t12 -50.5l187 294q-14 33 -35 50t-51 17zM414 460l-187 -294q13 -33 34.5 -50.5t53.5 -17.5q64 0 89 69t25 183q0 33 -3 58.5t-12 51.5z" />
    <glyph glyph-name="Ugrave" unicode="&#xd9;" horiz-adv-x="608" 
d="M300 740l-129 139q5 13 21.5 19t39.5 6q50 0 85 -21l68 -143h-85zM304 -11q-105 0 -172 58t-67 156v485h163v-484q0 -44 23 -68t60 -24t59.5 23.5t22.5 69.5v483h150v-485q0 -97 -66.5 -155.5t-172.5 -58.5z" />
    <glyph glyph-name="Uacute" unicode="&#xda;" horiz-adv-x="608" 
d="M323 740h-85l68 143q17 11 39 16t46 5q51 0 61 -25zM304 -11q-105 0 -172 58t-67 156v485h163v-484q0 -44 23 -68t60 -24t59.5 23.5t22.5 69.5v483h150v-485q0 -97 -66.5 -155.5t-172.5 -58.5z" />
    <glyph glyph-name="Ucircumflex" unicode="&#xdb;" horiz-adv-x="608" 
d="M416 731l-106 76l-107 -76l-43 38l105 106q19 19 44 19q26 0 45 -19l105 -106zM304 -11q-105 0 -172 58t-67 156v485h163v-484q0 -44 23 -68t60 -24t59.5 23.5t22.5 69.5v483h150v-485q0 -97 -66.5 -155.5t-172.5 -58.5z" />
    <glyph glyph-name="Udieresis" unicode="&#xdc;" horiz-adv-x="608" 
d="M408 744q-28 0 -48 17t-20 43q0 25 20 43t48 18t48.5 -17.5t20.5 -43.5t-20 -43t-49 -17zM213 744q-28 0 -48 17t-20 43q0 25 20 43t48 18t48.5 -17.5t20.5 -43.5t-20 -43t-49 -17zM304 -11q-105 0 -172 58t-67 156v485h163v-484q0 -44 23 -68t60 -24t59.5 23.5
t22.5 69.5v483h150v-485q0 -97 -66.5 -155.5t-172.5 -58.5z" />
    <glyph glyph-name="germandbls" unicode="&#xdf;" horiz-adv-x="602" 
d="M380 -8q-38 0 -66 7.5t-47 22.5l25 101q17 -12 28 -14.5t30 -2.5q28 0 45.5 16.5t17.5 44.5q0 24 -11.5 41.5t-45 40t-51 52.5t-17.5 73q0 44 23 74.5t61 46.5q4 13 5 25t1 28q0 142 -79 142q-83 0 -83 -172v-518h-155v506q0 128 60 208t178 80q107 0 168.5 -69
t61.5 -172q0 -52 -12 -90q-84 -15 -84 -77q0 -24 10.5 -39.5t48 -43t56.5 -61t19 -79.5q0 -79 -53.5 -125t-133.5 -46z" />
    <glyph glyph-name="agrave" unicode="&#xe0;" horiz-adv-x="540" 
d="M262 594l-128 140q5 12 22 18.5t41 6.5q49 0 82 -21l69 -144h-86zM270 -10q-236 0 -236 170q0 96 80 139t221 56v25q0 40 -24.5 56t-70.5 16q-37 0 -72 -9t-68 -24l-34 89q47 20 102.5 30.5t100.5 10.5q100 0 156 -46t56 -151v-322q-35 -19 -89 -29.5t-122 -10.5z
M335 283q-80 -8 -117.5 -32t-37.5 -85q0 -46 25 -68t73 -22q35 0 57 11v196z" />
    <glyph glyph-name="aacute" unicode="&#xe1;" horiz-adv-x="540" 
d="M309 594h-85l68 144q35 21 84 21q50 0 62 -25zM270 -10q-236 0 -236 170q0 96 80 139t221 56v25q0 40 -24.5 56t-70.5 16q-37 0 -72 -9t-68 -24l-34 89q47 20 102.5 30.5t100.5 10.5q100 0 156 -46t56 -151v-322q-35 -19 -89 -29.5t-122 -10.5zM335 283
q-80 -8 -117.5 -32t-37.5 -85q0 -46 25 -68t73 -22q35 0 57 11v196z" />
    <glyph glyph-name="acircumflex" unicode="&#xe2;" horiz-adv-x="540" 
d="M382 585l-106 76l-107 -76l-43 39l105 106q18 18 44 18q27 0 45 -18l105 -106zM270 -10q-236 0 -236 170q0 96 80 139t221 56v25q0 40 -24.5 56t-70.5 16q-37 0 -72 -9t-68 -24l-34 89q47 20 102.5 30.5t100.5 10.5q100 0 156 -46t56 -151v-322q-35 -19 -89 -29.5
t-122 -10.5zM335 283q-80 -8 -117.5 -32t-37.5 -85q0 -46 25 -68t73 -22q35 0 57 11v196z" />
    <glyph glyph-name="atilde" unicode="&#xe3;" horiz-adv-x="540" 
d="M351 602q-31 -3 -78 18t-71 21q-21 0 -34.5 -13.5t-23.5 -36.5l-32 69q13 28 32 43t53 15q26 0 72.5 -20t60.5 -20q28 0 43 12.5t24 35.5l33 -70q-17 -47 -79 -54zM270 -10q-236 0 -236 170q0 96 80 139t221 56v25q0 40 -24.5 56t-70.5 16q-37 0 -72 -9t-68 -24l-34 89
q47 20 102.5 30.5t100.5 10.5q100 0 156 -46t56 -151v-322q-35 -19 -89 -29.5t-122 -10.5zM335 283q-80 -8 -117.5 -32t-37.5 -85q0 -46 25 -68t73 -22q35 0 57 11v196z" />
    <glyph glyph-name="adieresis" unicode="&#xe4;" horiz-adv-x="540" 
d="M375 602q-28 0 -48 17t-20 43q0 25 20 43t48 18t48.5 -17.5t20.5 -43.5t-20 -43t-49 -17zM180 602q-28 0 -48 17t-20 43q0 25 20 43t48 18q30 0 49.5 -17.5t19.5 -43.5t-20 -43t-49 -17zM270 -10q-236 0 -236 170q0 96 80 139t221 56v25q0 40 -24.5 56t-70.5 16
q-37 0 -72 -9t-68 -24l-34 89q47 20 102.5 30.5t100.5 10.5q100 0 156 -46t56 -151v-322q-35 -19 -89 -29.5t-122 -10.5zM335 283q-80 -8 -117.5 -32t-37.5 -85q0 -46 25 -68t73 -22q35 0 57 11v196z" />
    <glyph glyph-name="aring" unicode="&#xe5;" horiz-adv-x="540" 
d="M277 589q-37 0 -62.5 25.5t-25.5 62.5t25.5 62.5t62.5 25.5t62.5 -25.5t25.5 -62.5t-25.5 -62.5t-62.5 -25.5zM270 -10q-236 0 -236 170q0 96 80 139t221 56v25q0 40 -24.5 56t-70.5 16q-37 0 -72 -9t-68 -24l-34 89q47 20 102.5 30.5t100.5 10.5q100 0 156 -46t56 -151
v-322q-35 -19 -89 -29.5t-122 -10.5zM277 718q-17 0 -29 -12t-12 -29t12 -29t29 -12t29 12t12 29t-12 29t-29 12zM335 283q-80 -8 -117.5 -32t-37.5 -85q0 -46 25 -68t73 -22q35 0 57 11v196z" />
    <glyph glyph-name="ae" unicode="&#xe6;" horiz-adv-x="829" 
d="M470 215q12 -119 127 -119q43 0 78 7.5t59 19.5l36 -94q-37 -19 -81.5 -29t-113.5 -10q-54 0 -95.5 21.5t-69.5 58.5q-21 -38 -60 -59t-104 -21q-103 0 -157.5 43.5t-54.5 125.5q0 93 79.5 137.5t216.5 58.5v25q0 39 -24.5 56t-70.5 17q-35 0 -70 -9t-67 -24l-33 88
q35 17 85.5 29t113.5 12q50 0 87.5 -18t57.5 -56q26 36 67.5 55t86.5 19q114 0 170 -74.5t56 -214.5zM554 457q-45 0 -69.5 -40.5t-24.5 -123.5l184 27q0 71 -23.5 104t-66.5 33zM329 282q-78 -9 -116.5 -33.5t-38.5 -84.5q0 -87 80 -87q34 0 54.5 20.5t20.5 54.5v130z" />
    <glyph glyph-name="ccedilla" unicode="&#xe7;" horiz-adv-x="420" 
d="M262 -10q-99 0 -160.5 74t-61.5 207q0 131 63 204.5t158 73.5q45 0 78 -11t54 -28l-32 -86q-13 10 -27 15.5t-37 5.5q-50 0 -75 -44t-25 -128q0 -82 26 -127t73 -45q40 0 65 22l33 -94q-19 -18 -51 -28.5t-81 -10.5zM76 -205l28 49q27 -3 51 -3q47 0 74.5 9t27.5 25
t-24 20.5t-96 4.5l26 43q36 3 64 3q69 0 99 -18t30 -52q0 -41 -52 -63t-144 -22h-40q-29 3 -44 4z" />
    <glyph glyph-name="egrave" unicode="&#xe8;" horiz-adv-x="551" 
d="M259 594l-128 140q5 12 22 18.5t41 6.5q49 0 82 -21l69 -144h-86zM188 215q16 -118 130 -118q43 0 79.5 8t60.5 21l35 -97q-34 -17 -82.5 -28t-110.5 -11q-123 0 -191.5 75t-68.5 206q0 128 64 203t179 75t171.5 -74t56.5 -214zM277 457q-99 0 -99 -166l188 28
q0 71 -22.5 104.5t-66.5 33.5z" />
    <glyph glyph-name="eacute" unicode="&#xe9;" horiz-adv-x="551" 
d="M312 594h-85l68 144q35 21 84 21q50 0 62 -25zM188 215q16 -118 130 -118q43 0 79.5 8t60.5 21l35 -97q-34 -17 -82.5 -28t-110.5 -11q-123 0 -191.5 75t-68.5 206q0 128 64 203t179 75t171.5 -74t56.5 -214zM277 457q-99 0 -99 -166l188 28q0 71 -22.5 104.5t-66.5 33.5
z" />
    <glyph glyph-name="ecircumflex" unicode="&#xea;" horiz-adv-x="551" 
d="M388 585l-107 76l-107 -76l-43 39l105 106q18 18 44 18q27 0 45 -18l105 -106zM188 215q16 -118 130 -118q43 0 79.5 8t60.5 21l35 -97q-34 -17 -82.5 -28t-110.5 -11q-123 0 -191.5 75t-68.5 206q0 128 64 203t179 75t171.5 -74t56.5 -214zM277 457q-99 0 -99 -166
l188 28q0 71 -22.5 104.5t-66.5 33.5z" />
    <glyph glyph-name="edieresis" unicode="&#xeb;" horiz-adv-x="551" 
d="M379 602q-28 0 -48 17t-20 43q0 25 20 43t48 18t48.5 -17.5t20.5 -43.5t-20 -43t-49 -17zM185 602q-28 0 -48 17t-20 43q0 25 20 43t48 18t48.5 -17.5t20.5 -43.5t-20 -43t-49 -17zM188 215q16 -118 130 -118q43 0 79.5 8t60.5 21l35 -97q-34 -17 -82.5 -28t-110.5 -11
q-123 0 -191.5 75t-68.5 206q0 128 64 203t179 75t171.5 -74t56.5 -214zM277 457q-99 0 -99 -166l188 28q0 71 -22.5 104.5t-66.5 33.5z" />
    <glyph glyph-name="igrave" unicode="&#xec;" horiz-adv-x="280" 
d="M126 594l-129 140q5 12 22 18.5t41 6.5q48 0 83 -21l68 -144h-85zM62 0v539h156v-539h-156z" />
    <glyph glyph-name="iacute" unicode="&#xed;" horiz-adv-x="280" 
d="M153 594h-85l68 144q17 11 39 16t46 5q51 0 61 -25zM62 0v539h156v-539h-156z" />
    <glyph glyph-name="icircumflex" unicode="&#xee;" horiz-adv-x="280" 
d="M247 585l-107 76l-107 -76l-42 39l104 106q18 18 45 18q26 0 44 -18l105 -106zM62 0v539h156v-539h-156z" />
    <glyph glyph-name="idieresis" unicode="&#xef;" horiz-adv-x="280" 
d="M237 602q-29 0 -49 17t-20 43q0 25 20 43t49 18t48.5 -17.5t19.5 -43.5q0 -25 -19.5 -42.5t-48.5 -17.5zM42 602q-28 0 -48 17t-20 43q0 25 20 43t48 18t48.5 -17.5t20.5 -43.5t-20 -43t-49 -17zM62 0v539h156v-539h-156z" />
    <glyph glyph-name="ntilde" unicode="&#xf1;" horiz-adv-x="576" 
d="M366 602q-31 -3 -78 18t-71 21q-22 0 -35.5 -13.5t-22.5 -36.5l-32 69q13 28 32 43t53 15q28 0 72 -20t61 -20q27 0 42.5 13t24.5 35l33 -70q-17 -47 -79 -54zM361 0v379q0 73 -80 73q-22 0 -35 -2.5t-31 -8.5v-441h-156v509q43 19 100 29.5t127 10.5q231 0 231 -169
v-380h-156z" />
    <glyph glyph-name="ograve" unicode="&#xf2;" horiz-adv-x="556" 
d="M255 594l-129 140q5 12 22 18.5t41 6.5q48 0 83 -21l68 -144h-85zM278 -10q-114 0 -176 77.5t-62 202.5t61.5 202t175.5 77t176.5 -77t62.5 -202t-62 -202.5t-176 -77.5zM278 452q-47 0 -65 -48.5t-18 -131.5q0 -82 18 -129t65 -47q48 0 65.5 46.5t17.5 129.5
q0 85 -17.5 132.5t-65.5 47.5z" />
    <glyph glyph-name="oacute" unicode="&#xf3;" horiz-adv-x="556" 
d="M306 594h-85l68 144q35 21 84 21q50 0 62 -25zM278 -10q-114 0 -176 77.5t-62 202.5t61.5 202t175.5 77t176.5 -77t62.5 -202t-62 -202.5t-176 -77.5zM278 452q-47 0 -65 -48.5t-18 -131.5q0 -82 18 -129t65 -47q48 0 65.5 46.5t17.5 129.5q0 85 -17.5 132.5t-65.5 47.5z
" />
    <glyph glyph-name="ocircumflex" unicode="&#xf4;" horiz-adv-x="556" 
d="M385 585l-107 76l-107 -76l-43 39l105 106q18 18 44 18q27 0 45 -18l105 -106zM278 -10q-114 0 -176 77.5t-62 202.5t61.5 202t175.5 77t176.5 -77t62.5 -202t-62 -202.5t-176 -77.5zM278 452q-47 0 -65 -48.5t-18 -131.5q0 -82 18 -129t65 -47q48 0 65.5 46.5
t17.5 129.5q0 85 -17.5 132.5t-65.5 47.5z" />
    <glyph glyph-name="otilde" unicode="&#xf5;" horiz-adv-x="556" 
d="M355 602h-10q-27 0 -70 19.5t-67 19.5q-22 0 -35.5 -13.5t-22.5 -36.5l-32 69q13 28 31.5 43t53.5 15q28 0 72 -20t61 -20q27 0 42 12.5t25 35.5l33 -70q-10 -26 -29 -40t-52 -14zM278 -10q-114 0 -176 77.5t-62 202.5t61.5 202t175.5 77t176.5 -77t62.5 -202t-62 -202.5
t-176 -77.5zM278 452q-47 0 -65 -48.5t-18 -131.5q0 -82 18 -129t65 -47q48 0 65.5 46.5t17.5 129.5q0 85 -17.5 132.5t-65.5 47.5z" />
    <glyph glyph-name="odieresis" unicode="&#xf6;" horiz-adv-x="556" 
d="M375 602q-29 0 -49 17t-20 43q0 25 20 43t49 18q28 0 48.5 -17.5t20.5 -43.5t-20 -43t-49 -17zM180 602q-28 0 -48 17t-20 43t19.5 43.5t48.5 17.5q28 0 48.5 -17.5t20.5 -43.5t-20 -43t-49 -17zM278 -10q-114 0 -176 77.5t-62 202.5t61.5 202t175.5 77t176.5 -77
t62.5 -202t-62 -202.5t-176 -77.5zM278 452q-47 0 -65 -48.5t-18 -131.5q0 -82 18 -129t65 -47q48 0 65.5 46.5t17.5 129.5q0 85 -17.5 132.5t-65.5 47.5z" />
    <glyph glyph-name="divide" unicode="&#xf7;" 
d="M282 428q-27 0 -46 19t-19 46t19 46t46 19t46 -19t19 -46t-19 -46t-46 -19zM79 293v75h406v-75h-406zM282 103q-27 0 -46 19t-19 47q0 27 19 46t46 19t46 -19t19 -46q0 -26 -19 -46t-46 -20z" />
    <glyph glyph-name="oslash" unicode="&#xf8;" horiz-adv-x="560" 
d="M280 -10q-69 0 -122 33l-47 -81l-34 20l48 84q-85 77 -85 224q0 124 63.5 201.5t176.5 77.5q68 0 118 -31l46 79l34 -20l-46 -81q44 -38 66 -95t22 -131q0 -125 -63 -202.5t-177 -77.5zM280 463q-52 0 -74.5 -54t-22.5 -136q0 -42 3 -62t11 -40l148 256q-25 36 -65 36z
M363 377l-148 -256q23 -36 65 -36q53 0 75.5 52t22.5 135q0 32 -3 57t-12 48z" />
    <glyph glyph-name="ugrave" unicode="&#xf9;" horiz-adv-x="569" 
d="M270 594l-129 140q5 12 22 18.5t41 6.5q48 0 83 -21l68 -144h-85zM285 -10q-116 0 -171 45t-55 142v362h156v-373q0 -31 18 -51t56 -20q40 0 65 13v431h156v-507q-38 -19 -95.5 -30.5t-129.5 -11.5z" />
    <glyph glyph-name="uacute" unicode="&#xfa;" horiz-adv-x="569" 
d="M313 594h-85l68 144q17 11 39 16t46 5q51 0 61 -25zM285 -10q-116 0 -171 45t-55 142v362h156v-373q0 -31 18 -51t56 -20q40 0 65 13v431h156v-507q-38 -19 -95.5 -30.5t-129.5 -11.5z" />
    <glyph glyph-name="ucircumflex" unicode="&#xfb;" horiz-adv-x="569" 
d="M392 585l-107 76l-107 -76l-42 39l104 106q18 18 44 18q27 0 45 -18l105 -106zM285 -10q-116 0 -171 45t-55 142v362h156v-373q0 -31 18 -51t56 -20q40 0 65 13v431h156v-507q-38 -19 -95.5 -30.5t-129.5 -11.5z" />
    <glyph glyph-name="udieresis" unicode="&#xfc;" horiz-adv-x="569" 
d="M381 602q-28 0 -48 17t-20 43q0 25 20 43t48 18q30 0 49.5 -17.5t19.5 -43.5t-20 -43t-49 -17zM187 602q-29 0 -49 17t-20 43q0 25 20 43t49 18q28 0 48.5 -17.5t20.5 -43.5t-20 -43t-49 -17zM285 -10q-116 0 -171 45t-55 142v362h156v-373q0 -31 18 -51t56 -20
q40 0 65 13v431h156v-507q-38 -19 -95.5 -30.5t-129.5 -11.5z" />
    <glyph glyph-name="ydieresis" unicode="&#xff;" horiz-adv-x="522" 
d="M367 602q-28 0 -48 17t-20 43q0 25 20 43t48 18t48.5 -17.5t20.5 -43.5t-20 -43t-49 -17zM172 602q-28 0 -48 17t-20 43q0 25 20 43t48 18t48.5 -17.5t20.5 -43.5t-20 -43t-49 -17zM266 -215h-165l91 215l-178 539h165l89 -371l95 371h146z" />
    <glyph glyph-name="dotlessi" unicode="&#x131;" horiz-adv-x="274" 
d="M59 0v539h156v-539h-156z" />
    <glyph glyph-name="OE" unicode="&#x152;" horiz-adv-x="770" 
d="M414 0q-14 -4 -34.5 -7t-48.5 -3q-142 0 -214.5 94t-72.5 260q0 167 72 260.5t214 93.5q25 0 43.5 -2.5t41.5 -7.5h314v-109h-188v-175h165v-106h-165v-189h188v-109h-315zM390 589q-21 7 -51 7q-73 0 -101.5 -68.5t-28.5 -180.5t28.5 -180t101.5 -68q33 0 51 5v485z" />
    <glyph glyph-name="oe" unicode="&#x153;" horiz-adv-x="855" 
d="M496 217q9 -69 42.5 -95t84.5 -26q45 0 78 7.5t59 21.5l36 -96q-37 -19 -79 -29t-115 -10q-120 0 -172 92q-25 -44 -64.5 -68t-91.5 -24q-111 0 -172.5 77.5t-61.5 202.5t61.5 202t172.5 77q51 0 89 -21.5t65 -63.5q25 40 67.5 62.5t92.5 22.5q115 0 171 -74.5t56 -217.5
zM580 460q-45 0 -69.5 -40.5t-24.5 -123.5l184 23q0 72 -23.5 106.5t-66.5 34.5zM274 451q-49 0 -66.5 -49.5t-17.5 -128.5q0 -80 17.5 -129t66.5 -49q50 0 67 48t17 129q0 108 -21.5 143.5t-62.5 35.5z" />
    <glyph glyph-name="Ydieresis" unicode="&#x178;" horiz-adv-x="531" 
d="M370 744q-28 0 -48 17t-20 43q0 25 20 43t48 18t48.5 -17.5t20.5 -43.5t-20 -43t-49 -17zM175 744q-28 0 -48 17t-20 43q0 25 20 43t48 18q30 0 49.5 -17.5t19.5 -43.5t-20 -43t-49 -17zM346 289v-289h-162v289l-182 399h173l98 -260l106 260h151z" />
    <glyph glyph-name="florin" unicode="&#x192;" horiz-adv-x="606" 
d="M553 580q-27 11 -56 11q-35 0 -53 -27.5t-28 -76.5l-15 -72h107v-100h-127l-63 -321q-18 -95 -72.5 -155t-139.5 -60q-29 0 -56 6.5t-46 15.5l19 108q24 -15 54 -15q36 0 55.5 28.5t33.5 98.5l58 294h-105v100h125l16 77q21 101 63 153.5t138 52.5q37 0 60.5 -4.5
t49.5 -14.5z" />
    <glyph glyph-name="hungarumlaut" unicode="&#x2ba;" horiz-adv-x="248" 
d="M179 594h-54l70 128q12 11 27.5 17.5t36.5 6.5q19 0 27 -5.5t11 -17.5zM34 594h-55l70 128q12 11 27.5 17.5t36.5 6.5q20 0 28 -5.5t10 -17.5z" />
    <glyph glyph-name="caron" unicode="&#x2c7;" horiz-adv-x="248" 
d="M170 607q-19 -19 -46 -19t-46 19l-105 106l41 37l110 -78l110 78l41 -37z" />
    <glyph glyph-name="macron" unicode="&#x2c9;" horiz-adv-x="248" 
d="M-39 624v81h326v-81h-326z" />
    <glyph glyph-name="breve" unicode="&#x2d8;" horiz-adv-x="248" 
d="M124 592q-74 0 -109 45t-35 97l52 14q10 -39 33.5 -57.5t57.5 -18.5q68 0 94 76l51 -14q0 -53 -34.5 -97.5t-109.5 -44.5z" />
    <glyph glyph-name="dotaccent" unicode="&#x2d9;" horiz-adv-x="248" 
d="M124 619q-30 0 -51.5 21.5t-21.5 51.5t21.5 51.5t51.5 21.5t51.5 -21.5t21.5 -51.5q0 -31 -21 -52t-52 -21z" />
    <glyph glyph-name="ring" unicode="&#x2da;" horiz-adv-x="248" 
d="M124 589q-37 0 -62.5 25.5t-25.5 62.5t25.5 62.5t62.5 25.5t62.5 -25.5t25.5 -62.5t-25.5 -62.5t-62.5 -25.5zM124 718q-17 0 -29 -12t-12 -29t12 -29t29 -12t29 12t12 29t-12 29t-29 12z" />
    <glyph glyph-name="ogonek" unicode="&#x2db;" horiz-adv-x="248" 
d="M70 -126q0 39 26 70t87 62h86q-60 -34 -80 -59t-20 -49q0 -25 39 -25q27 0 64 15l16 -45q-29 -15 -61 -23.5t-64 -8.5q-41 0 -67 15.5t-26 47.5z" />
    <glyph glyph-name="circumflex" unicode="&#x302;" horiz-adv-x="248" 
d="M231 585l-107 76l-107 -76l-42 39l105 106q18 18 44 18t44 -18l105 -106z" />
    <glyph glyph-name="tilde" unicode="&#x303;" horiz-adv-x="248" 
d="M204 602q-31 -3 -78 18t-71 21q-22 0 -35.5 -13.5t-22.5 -36.5l-32 69q13 28 32 43t53 15q28 0 72 -20t61 -20q27 0 42.5 13t24.5 35l33 -70q-17 -47 -79 -54z" />
    <glyph glyph-name="summation" unicode="&#x3a3;" 
d="M36 -215l243 479l-238 424h471v-107h-241l172 -297l-194 -375h274v-124h-487z" />
    <glyph glyph-name="Omega" unicode="&#x3a9;" horiz-adv-x="689" 
d="M373 0q42 65 68.5 167.5t26.5 216.5q0 98 -29.5 153t-93.5 55q-63 0 -93.5 -55.5t-30.5 -152.5q0 -114 26 -215.5t69 -168.5h-278v109h118q-38 53 -65.5 132.5t-27.5 150.5q0 136 72.5 221t209.5 85q136 0 208.5 -85t72.5 -221q0 -71 -26.5 -149.5t-65.5 -133.5h117v-109
h-278z" />
    <glyph glyph-name="pi" unicode="&#x3c0;" horiz-adv-x="683" 
d="M413 162v280h-146v-442h-156v442h-66v97h590v-97h-66v-270q0 -35 12 -53t54 -18v-101q-29 -3 -53 -3q-106 0 -137.5 48t-31.5 117z" />
    <glyph glyph-name="endash" unicode="&#x2013;" horiz-adv-x="420" 
d="M0 289v92h420v-92h-420z" />
    <glyph glyph-name="emdash" unicode="&#x2014;" horiz-adv-x="840" 
d="M0 296v78h840v-78h-840z" />
    <glyph glyph-name="quoteleft" unicode="&#x2018;" horiz-adv-x="309" 
d="M190 497q-14 -21 -34.5 -33.5t-51.5 -12.5q-29 0 -42 12.5t-17 33.5l155 288h79z" />
    <glyph glyph-name="quoteright" unicode="&#x2019;" horiz-adv-x="309" 
d="M110 457h-80l89 289q14 21 35 33.5t52 12.5q29 0 41.5 -12.5t16.5 -33.5z" />
    <glyph glyph-name="quotesinglbase" unicode="&#x201a;" horiz-adv-x="309" 
d="M110 -169h-80l89 288q14 21 35.5 33.5t51.5 12.5q29 0 41.5 -12.5t16.5 -33.5z" />
    <glyph glyph-name="quotedblleft" unicode="&#x201c;" horiz-adv-x="526" 
d="M406 497q-13 -20 -34 -33t-52 -13q-28 0 -41.5 13t-17.5 33l155 288h80zM190 497q-14 -21 -34.5 -33.5t-51.5 -12.5q-29 0 -42 12.5t-17 33.5l155 288h79z" />
    <glyph glyph-name="quotedblright" unicode="&#x201d;" horiz-adv-x="526" 
d="M326 457h-80l90 289q15 21 35 33.5t51 12.5q29 0 42 -12.5t17 -33.5zM110 457h-80l89 289q14 21 35 33.5t52 12.5q29 0 41.5 -12.5t16.5 -33.5z" />
    <glyph glyph-name="quotedblbase" unicode="&#x201e;" horiz-adv-x="526" 
d="M326 -169h-80l90 288q14 21 34.5 33.5t51.5 12.5q29 0 42 -12.5t17 -33.5zM110 -169h-80l89 288q14 21 35.5 33.5t51.5 12.5q29 0 41.5 -12.5t16.5 -33.5z" />
    <glyph glyph-name="dagger" unicode="&#x2020;" horiz-adv-x="604" 
d="M369 401l13 -616h-161l13 616l-194 -12v156l194 -12l-13 252h161l-13 -252l195 12v-156z" />
    <glyph glyph-name="daggerdbl" unicode="&#x2021;" horiz-adv-x="604" 
d="M367 56l11 -271h-152l10 271l-196 -8v125l196 -7l-1 128l1 131l-196 -8v126l196 -8l-10 250h152l-11 -250l197 8v-126l-197 8l1 -131l-1 -128l197 7v-125z" />
    <glyph glyph-name="bullet" unicode="&#x2022;" horiz-adv-x="392" 
d="M196 221q-59 0 -100.5 41.5t-41.5 100.5t41.5 100.5t100.5 41.5t100.5 -41.5t41.5 -100.5q0 -60 -41 -101t-101 -41z" />
    <glyph glyph-name="ellipsis" unicode="&#x2026;" horiz-adv-x="929" 
d="M774 -8q-37 0 -63 26t-26 63t26 63t63 26t63 -26t26 -63t-26 -63t-63 -26zM464 -8q-36 0 -62 26t-26 63t25 63t63 26q37 0 63 -26t26 -63t-26 -63t-63 -26zM155 -8q-37 0 -63 26t-26 63t26 63t63 26t63 -26t26 -63t-26 -63t-63 -26z" />
    <glyph glyph-name="perthousand" unicode="&#x2030;" horiz-adv-x="1245" 
d="M1035 -10q-85 0 -118.5 69t-33.5 167t33.5 168t118.5 70q86 0 119.5 -69.5t33.5 -168.5q0 -98 -34 -167t-119 -69zM679 -10q-85 0 -118.5 69.5t-33.5 167.5q0 100 33 168.5t119 68.5q85 0 118.5 -69.5t33.5 -167.5t-33.5 -167.5t-118.5 -69.5zM364 -10l-76 19l235 688
l76 -19zM209 224q-85 0 -118.5 69.5t-33.5 166.5q0 100 33 169t119 69q85 0 119 -69.5t34 -168.5q0 -98 -34 -167t-119 -69zM1035 397q-31 0 -41.5 -44.5t-10.5 -122.5q0 -81 10 -123t42 -42t42.5 43.5t10.5 121.5q0 82 -10 124.5t-43 42.5zM679 398q-32 0 -42.5 -44.5
t-10.5 -122.5q0 -83 10 -124.5t43 -41.5q32 0 42.5 43.5t10.5 122.5t-10.5 123t-42.5 44zM209 632q-31 0 -41.5 -44.5t-10.5 -123.5q0 -81 10 -123t42 -42t42.5 43.5t10.5 121.5q0 83 -10 125.5t-43 42.5z" />
    <glyph glyph-name="guilsinglleft" unicode="&#x2039;" horiz-adv-x="329" 
d="M188 98l-148 236l149 237l84 -50l-117 -187l117 -187z" />
    <glyph glyph-name="guilsinglright" unicode="&#x203a;" horiz-adv-x="329" 
d="M141 98l-85 49l117 187l-117 187l85 50l148 -237z" />
    <glyph glyph-name="trademark" unicode="&#x2122;" horiz-adv-x="781" 
d="M657 346l-31 260l-77 -260h-67l-78 259l-29 -259h-73l50 342h93l72 -257l68 257h94l50 -342h-72zM204 632v-286h-74v286h-93v56h259v-56h-92z" />
    <glyph glyph-name="partialdiff" unicode="&#x2202;" 
d="M233 -9q-89 0 -141 48t-52 129q0 117 75.5 187.5t181.5 70.5q31 0 66 -8q-18 73 -74.5 116t-120.5 58l47 103q120 -21 213.5 -113.5t93.5 -243.5q0 -140 -69 -243.5t-220 -103.5zM184 182q0 -45 15.5 -68t49.5 -23q60 0 94 72.5t34 176.5q-25 7 -51 7q-66 0 -104 -46
t-38 -119z" />
    <glyph glyph-name="Delta" unicode="&#x2206;" horiz-adv-x="608" 
d="M2 0l222 688h160l222 -688h-604zM315 465l-16 70l-19 -70l-106 -370h244z" />
    <glyph glyph-name="product" unicode="&#x220f;" horiz-adv-x="802" 
d="M401 -11q-147 0 -251 103t-104 252q0 147 104.5 250.5t250.5 103.5q147 0 251 -103t104 -251q0 -147 -104 -251t-251 -104zM401 639q-122 0 -207.5 -86.5t-85.5 -208.5t85 -208t208 -86t208 86t85 208q0 121 -85 208t-208 87zM364 304v-172h-68v411q48 23 110 23
q66 0 108 -33.5t42 -98.5q0 -62 -44 -97t-117 -35q-8 0 -17 1t-14 1zM401 511q-20 0 -37 -6v-146q7 -1 13 -1h13q45 0 71.5 19.5t26.5 56.5q0 43 -24.5 60t-62.5 17z" />
    <glyph glyph-name="fraction" unicode="&#x2215;" horiz-adv-x="182" 
d="M-23 -27l-83 35l311 707l83 -34z" />
    <glyph glyph-name="periodcentered" unicode="&#x2219;" horiz-adv-x="282" 
d="M141 255q-37 0 -63 26t-26 63t26 63t63 26t63 -26t26 -63t-26 -63t-63 -26z" />
    <glyph glyph-name="radical" unicode="&#x221a;" 
d="M368 0h-139l-131 407l-80 1v90h194l81 -314l121 601h136z" />
    <glyph glyph-name="infinity" unicode="&#x221e;" horiz-adv-x="844" 
d="M610 155q-58 0 -102 25t-86 79q-46 -56 -87 -80t-98 -24q-82 0 -131.5 51.5t-49.5 132.5q0 79 50 132t131 53q57 0 96 -24t89 -83q47 56 86.5 81.5t99.5 25.5q81 0 130.5 -53.5t49.5 -131.5t-49 -131t-129 -53zM608 421q-34 0 -58 -16t-61 -64q37 -45 61.5 -62t58.5 -17
q35 0 58 22t23 56t-23.5 57.5t-58.5 23.5zM235 415q-35 0 -58.5 -22.5t-23.5 -56.5q0 -33 23.5 -56.5t58.5 -23.5q33 0 58 17.5t62 62.5q-68 79 -120 79z" />
    <glyph glyph-name="integral" unicode="&#x222b;" 
d="M390 606v-624q0 -92 -58 -145t-154 -53h-18q-13 2 -19 2v100q44 0 69 17t25 60v624q0 92 57.5 145.5t153.5 53.5h18q13 -2 19 -2v-100q-44 0 -68.5 -16.5t-24.5 -61.5z" />
    <glyph glyph-name="approxequal" unicode="&#x2248;" 
d="M369 355q-28 0 -88 29t-90 29q-40 0 -65 -11.5t-47 -33.5v100q18 18 45.5 30.5t66.5 12.5q30 0 89.5 -29t88.5 -29q41 0 67.5 13t48.5 36v-99q-20 -22 -47 -35t-69 -13zM369 145q-28 0 -88 29t-90 29q-39 0 -65 -12.5t-47 -33.5v101q18 18 45.5 30.5t66.5 12.5
q30 0 89.5 -29t88.5 -29q41 0 67.5 13t48.5 36v-99q-20 -22 -47 -35t-69 -13z" />
    <glyph glyph-name="notequal" unicode="&#x2260;" 
d="M243 188l-66 -116l-62 34l47 82h-83v92h133l60 103h-193v91h243l63 111l62 -33l-45 -78h83v-91h-133l-59 -103h192v-92h-242z" />
    <glyph glyph-name="lessequal" unicode="&#x2264;" 
d="M79 365v78l406 145v-93l-283 -91l283 -91v-93zM79 81v85h406v-85h-406z" />
    <glyph glyph-name="greaterequal" unicode="&#x2265;" 
d="M79 220v93l283 91l-283 91v93l406 -145v-78zM79 81v85h406v-85h-406z" />
    <glyph glyph-name="lozenge" unicode="&#x25ca;" horiz-adv-x="632" 
d="M316 0l-276 344l276 344l276 -344zM309 538l-148 -186l162 -202l148 186z" />
    <glyph glyph-name="fi" unicode="&#xf001;" horiz-adv-x="606" 
d="M465 621q-35 0 -59 21t-24 52q0 30 24 51t59 21q36 0 60 -21t24 -51t-24.5 -51.5t-59.5 -21.5zM389 0v539h156v-539h-156zM247 438v-438h-156v438h-58v101h58v55q0 91 53.5 141.5t146.5 50.5h24q11 -2 15 -2v-99q-43 0 -63 -16.5t-20 -61.5v-68h83v-101h-83z" />
    <glyph glyph-name="fl" unicode="&#xf002;" horiz-adv-x="611" 
d="M393 0v785h156v-785h-156zM247 438v-438h-156v438h-58v101h58v55q0 91 53.5 141.5t146.5 50.5h24q11 -2 15 -2v-99q-43 0 -63 -16.5t-20 -61.5v-68h83v-101h-83z" />
    <glyph glyph-name="Lslash" horiz-adv-x="444" 
d="M79 0v362l-53 -26v90l53 25v237h162v-181l72 32v-88l-72 -33v-309h174v-109h-336z" />
    <glyph glyph-name="lslash" horiz-adv-x="332" 
d="M244 418v-418h-156v365l-60 -31v91l60 30v330h156v-277l69 34v-90z" />
    <glyph glyph-name="Scaron" horiz-adv-x="484" 
d="M291 752q-19 -19 -46 -19q-28 0 -46 19l-105 106l41 37l110 -77l109 77l42 -37zM211 -10q-65 0 -106.5 10t-73.5 31l37 113q21 -14 48.5 -23t62.5 -9q42 0 67 22t25 60q0 34 -21 56t-84.5 50.5t-95.5 79t-32 106.5q0 90 60 151t158 61q55 0 93.5 -10t67.5 -30l-34 -99
q-22 14 -47 22t-56 8q-83 0 -83 -79q0 -35 22 -57t92.5 -53.5t100.5 -80.5t30 -113q0 -93 -64.5 -154.5t-166.5 -61.5z" />
    <glyph glyph-name="scaron" horiz-adv-x="427" 
d="M261 607q-19 -19 -46 -19q-28 0 -46 19l-105 106l41 37l110 -78l109 78l42 -37zM185 -9q-48 0 -90 11t-68 28l40 99q15 -12 42.5 -21.5t53.5 -9.5q30 0 48.5 16.5t18.5 42.5q0 28 -15 44t-69 37.5t-80 59.5t-26 85q0 70 50 118t130 48q92 0 155 -39l-38 -89
q-14 11 -35.5 19.5t-46.5 8.5q-29 0 -45.5 -16t-16.5 -40q0 -44 71.5 -74.5t98.5 -67.5t27 -90q0 -73 -55.5 -121.5t-149.5 -48.5z" />
    <glyph glyph-name="Zcaron" horiz-adv-x="472" 
d="M282 752q-19 -19 -46 -19q-26 0 -45 19l-106 106l42 37l110 -77l109 77l42 -37zM17 0l215 579h-192v109h393l-207 -579h211v-109h-420z" />
    <glyph glyph-name="zcaron" horiz-adv-x="439" 
d="M265 607q-19 -19 -46 -19q-26 0 -45 19l-106 106l42 37l110 -78l109 78l42 -37zM25 0l183 438h-165v101h358l-174 -438h178v-101h-380z" />
    <glyph glyph-name="brokenbar" horiz-adv-x="249" 
d="M64 386v399h121v-399h-121zM64 -215v399h121v-399h-121z" />
    <glyph glyph-name="Eth" horiz-adv-x="641" 
d="M291 -10q-134 0 -208 40v290h-50v94h50v244q42 19 91 29.5t110 10.5q160 0 236.5 -95.5t76.5 -255.5t-74 -258.5t-232 -98.5zM288 594q-25 0 -47 -8v-172h80v-94h-80v-213q21 -7 50 -7q75 0 109.5 58t34.5 192q0 128 -35 186t-112 58z" />
    <glyph glyph-name="glyph233" horiz-adv-x="562" 
d="M281 -11q-112 0 -176.5 76t-64.5 202q0 119 59.5 198.5t163.5 79.5q28 0 49 -6q-13 31 -25 55.5t-27 48.5l-91 -29q-7 13 -18.5 30t-21.5 28l87 28q-22 28 -49 54l132 42q22 -21 28.5 -28t19.5 -24l81 26q10 -11 22 -28t20 -30l-81 -26q58 -91 93.5 -196.5t35.5 -216.5
q0 -130 -61.5 -207t-175.5 -77zM336 448q-11 3 -21.5 5t-22.5 2q-52 0 -74.5 -43.5t-22.5 -139.5q0 -87 19.5 -131t67.5 -44q45 0 63 46t18 132q0 43 -8 93.5t-19 79.5z" />
    <glyph glyph-name="Yacute" horiz-adv-x="531" 
d="M298 740h-86l69 143q17 11 39 16t46 5q50 0 60 -25zM346 289v-289h-162v289l-182 399h173l98 -260l106 260h151z" />
    <glyph glyph-name="yacute" horiz-adv-x="522" 
d="M294 594h-85l68 144q17 11 39 16t46 5q51 0 61 -25zM266 -215h-165l91 215l-178 539h165l89 -371l95 371h146z" />
    <glyph glyph-name="Thorn" horiz-adv-x="575" 
d="M247 144l-23 1v-145h-159v688h159v-112q30 7 56 7q131 0 194 -60t63 -161t-70.5 -159.5t-219.5 -58.5zM269 491q-14 0 -22 -1t-23 -4v-245l18 -1q75 0 108 30t33 91q0 130 -114 130z" />
    <glyph glyph-name="thorn" horiz-adv-x="571" 
d="M288 -6q-43 0 -73 9v-218h-156v1000h155v-257q19 8 44 13.5t48 5.5q100 0 162.5 -68.5t62.5 -194.5q0 -134 -68.5 -212t-174.5 -78zM264 455q-14 0 -25.5 -2t-23.5 -8v-353q10 -2 20.5 -4t20.5 -2q64 0 92.5 49t28.5 137q0 95 -26.5 139t-86.5 44z" />
    <glyph glyph-name="minus" 
d="M79 281v100h406v-100h-406z" />
    <glyph glyph-name="multiply" 
d="M422 114l-140 149l-140 -148l-67 66l140 150l-141 150l68 67l140 -149l140 149l67 -67l-141 -150l142 -150z" />
    <glyph glyph-name="onesuperior" horiz-adv-x="384" 
d="M172 261v315q-20 -6 -44.5 -10.5t-52.5 -4.5l-13 63q58 7 92.5 24.5t48.5 39.5h77v-427h-108z" />
    <glyph glyph-name="twosuperior" horiz-adv-x="384" 
d="M34 261l148 213q20 30 28 47.5t8 35.5q0 25 -16.5 40.5t-51.5 15.5q-21 0 -36 -3.5t-35 -11.5l-26 70q50 26 123 26q79 0 115.5 -35.5t36.5 -87.5q0 -51 -57 -122l-78 -99h141v-89h-300z" />
    <glyph glyph-name="threesuperior" horiz-adv-x="384" 
d="M169 256q-79 0 -129 26l28 75q36 -19 84 -19q68 0 68 55q0 35 -27 48.5t-74 13.5v60q46 4 69 20t23 40q0 43 -59 43q-26 0 -40 -3.5t-32 -12.5l-27 67q26 13 54 19.5t68 6.5q65 0 103.5 -28.5t38.5 -78.5q0 -29 -17 -51t-42 -35q35 -14 55.5 -40t20.5 -68q0 -62 -46 -100
t-119 -38z" />
    <glyph glyph-name="onehalf" horiz-adv-x="850" 
d="M492 0l149 210q22 31 28.5 48.5t6.5 37.5q0 26 -16 41t-52 15q-19 0 -30.5 -3t-31.5 -12l-27 70q23 12 50 19t65 7q79 0 115.5 -36.5t36.5 -87.5q0 -27 -13.5 -57.5t-42.5 -65.5l-79 -97h141v-89h-300zM290 -27l-83 35l311 707l83 -34zM146 261v315q-22 -6 -46.5 -10.5
t-52.5 -4.5l-13 63q55 7 91.5 25t50.5 39h77v-427h-107z" />
    <glyph glyph-name="onequarter" horiz-adv-x="850" 
d="M760 82v-82h-103v82h-165v64l165 281h103v-284h32v-61h-32zM306 -27l-83 35l311 707l83 -34zM146 261v315q-22 -6 -46.5 -10.5t-52.5 -4.5l-13 63q55 7 91.5 25t50.5 39h77v-427h-107zM625 263l-70 -120h102v119l1 64z" />
    <glyph glyph-name="threequarters" horiz-adv-x="850" 
d="M765 82v-82h-103v82h-165v64l165 281h103v-284h32v-61h-32zM336 -27l-83 35l311 707l83 -34zM169 256q-80 0 -130 26l29 75q17 -10 36 -14.5t48 -4.5q68 0 68 55q0 35 -27 48.5t-75 13.5v60q93 9 93 60q0 43 -59 43q-26 0 -40 -3.5t-32 -12.5l-27 67q25 13 54 19.5
t68 6.5q65 0 103.5 -28.5t38.5 -78.5q0 -29 -17 -51t-42 -35q35 -14 55.5 -40t20.5 -68q0 -62 -46 -100t-119 -38zM630 263l-70 -120h102v119l2 64q-6 -13 -12 -24.5t-22 -38.5z" />
  </font>
</defs>
</svg>
