<?xml version="1.0" standalone="no"?>
<!DOCTYPE svg PUBLIC "-//W3C//DTD SVG 1.1//EN" "http://www.w3.org/Graphics/SVG/1.1/DTD/svg11.dtd" >
<svg xmlns="http://www.w3.org/2000/svg" xmlns:xlink="http://www.w3.org/1999/xlink" version="1.1">
<metadata>
Created by FontForge 20170731 at Mon Jun 24 19:54:57 2002
 By Aleksey,,,
Copyright Hans Reichel, 1996. Published by FontShop International FontFont release 17
</metadata>
<defs>
<font id="DaxBlack" horiz-adv-x="600" >
  <font-face 
    font-family="Dax"
    font-weight="400"
    font-stretch="normal"
    units-per-em="1000"
    panose-1="0 0 4 0 0 0 0 0 0 0"
    ascent="800"
    descent="-200"
    x-height="539"
    cap-height="688"
    bbox="-100 -245 1249 922"
    underline-thickness="50"
    underline-position="-175"
    unicode-range="U+0020-F002"
  />
<missing-glyph horiz-adv-x="500" 
d="M63 0v785h375v-785h-375zM125 63h250v660h-250v-660z" />
    <glyph glyph-name=".notdef" horiz-adv-x="500" 
d="M63 0v785h375v-785h-375zM125 63h250v660h-250v-660z" />
    <glyph glyph-name=".null" horiz-adv-x="0" 
 />
    <glyph glyph-name="nonmarkingreturn" horiz-adv-x="260" 
 />
    <glyph glyph-name="space" unicode=" " horiz-adv-x="260" 
 />
    <glyph glyph-name="exclam" unicode="!" horiz-adv-x="373" 
d="M328 688l-48 -420h-172l-48 420h268zM314 108q0 -49 -35 -84.5t-85 -35.5q-49 0 -84.5 35.5t-35.5 84.5q0 50 35 85.5t85 35.5t85 -35.5t35 -85.5z" />
    <glyph glyph-name="quotedbl" unicode="&#x22;" horiz-adv-x="500" 
d="M455 657l-35 -309h-114l-35 309q33 43 93 43q58 0 91 -43zM228 657l-35 -309h-113l-35 309q32 43 91 43q60 0 92 -43z" />
    <glyph glyph-name="numbersign" unicode="#" 
d="M556 400h-87l-17 -95h70v-104h-87l-33 -201h-121l34 201h-80l-34 -201h-122l35 200h-70v105h87l17 94h-71v106h87l32 183h120l-31 -183h80l31 183h121l-31 -182h70v-106zM348 400h-79l-18 -95h80z" />
    <glyph glyph-name="dollar" unicode="$" 
d="M509 217q0 -78 -48.5 -136.5t-132.5 -78.5l14 -139h-120l13 133q-111 4 -165 38l49 154q48 -29 103 -29t55 44q0 37 -75 76q-126 65 -126 189q0 82 49 142.5t134 77.5l-12 128h117l-13 -125q81 -7 133 -37l-41 -127q-50 25 -93 25q-24 0 -41.5 -12t-17.5 -31
q0 -39 77 -84q68 -39 99 -78q42 -54 42 -130z" />
    <glyph glyph-name="percent" unicode="%" horiz-adv-x="922" 
d="M877 228q0 -96 -33 -157q-43 -80 -137 -80t-137 80q-33 61 -33 157q0 98 33 160q43 81 137 81t137 -81q33 -62 33 -160zM632 674l-236 -686l-106 25l236 687zM385 457q0 -97 -33 -158q-43 -80 -137 -80t-137 80q-33 61 -33 158q0 98 33 160q43 81 137 81t137 -81
q33 -62 33 -160zM738 235q0 140 -31 140t-31 -140t31 -140t31 140zM246 463q0 141 -31 141t-31 -141q0 -139 31 -139t31 139z" />
    <glyph glyph-name="ampersand" unicode="&#x26;" horiz-adv-x="678" 
d="M693 392q-55 -26 -105 -36v-323q-83 -43 -256 -43q-302 0 -302 206q0 121 126 179v2q-85 51 -85 140q0 81 65 131t172 50q130 0 199 -44l-65 -129q-40 18 -83 18q-64 0 -64 -51q0 -48 72 -48q99 0 259 77zM368 132v188q-100 -22 -100 -107q0 -46 17 -65.5t61 -19.5
q14 0 22 4z" />
    <glyph glyph-name="quotesingle" unicode="'" horiz-adv-x="274" 
d="M229 657l-35 -309h-114l-35 309q32 43 92 43t92 -43z" />
    <glyph glyph-name="parenleft" unicode="(" horiz-adv-x="434" 
d="M424 -175l-103 -55q-150 137 -217 260q-64 120 -64 256q0 135 65.5 256.5t215.5 258.5l103 -55q-154 -216 -154 -460q0 -245 154 -461z" />
    <glyph glyph-name="parenright" unicode=")" horiz-adv-x="434" 
d="M394 286q0 -136 -64 -256q-67 -123 -217 -260l-103 55q154 216 154 461q0 244 -154 460l103 55q150 -137 217 -260q64 -120 64 -255z" />
    <glyph glyph-name="asterisk" unicode="*" horiz-adv-x="501" 
d="M461 647q0 -30 -20.5 -50t-48.5 -20q-27 0 -47 20.5t-20 49.5q0 30 20.5 50t48.5 20q27 0 47 -20.5t20 -49.5zM318 751q0 -29 -20 -49t-48 -20q-27 0 -47 20t-20 49q0 30 20 50t48 20q27 0 47 -20t20 -50zM304 602q0 -24 -16 -39t-38 -15q-21 0 -37 15.5t-16 38.5
t16 38.5t38 15.5q21 0 37 -15.5t16 -38.5zM406 480q0 -30 -20 -49.5t-48 -19.5q-27 0 -47.5 20t-20.5 49q0 30 20.5 50t48.5 20q27 0 47 -20t20 -50zM176 647q0 -29 -20.5 -49t-48.5 -20q-27 0 -47 20t-20 49q0 30 20.5 50t47.5 20q28 0 48 -20t20 -50zM229 480
q0 -29 -20 -49t-47 -20q-28 0 -48 20t-20 49q0 30 20 50t48 20t47.5 -20t19.5 -50z" />
    <glyph glyph-name="plus" unicode="+" 
d="M513 259h-143v-140h-140v140h-143v140h143v140h140v-140h143v-140z" />
    <glyph glyph-name="comma" unicode="," horiz-adv-x="344" 
d="M308 161l-188 -330h-131l101 330q42 67 125 67q82 0 93 -67z" />
    <glyph glyph-name="hyphen" unicode="-" horiz-adv-x="368" 
d="M332 255h-296v159h296v-159z" />
    <glyph glyph-name="hyphen" unicode="&#x2010;" horiz-adv-x="368" 
d="M332 255h-296v159h296v-159z" />
    <glyph glyph-name="period" unicode="." horiz-adv-x="312" 
d="M276 109q0 -50 -35 -85.5t-85 -35.5q-49 0 -84.5 35.5t-35.5 84.5q0 50 35 85.5t85 35.5t85 -35t35 -85z" />
    <glyph glyph-name="slash" unicode="/" 
d="M600 735l-468 -971l-132 64l468 972z" />
    <glyph glyph-name="zero" unicode="0" 
d="M563 344q0 -141 -54 -235q-69 -119 -209 -119t-209 119q-54 94 -54 235t54 235q69 119 209 119t209 -119q54 -94 54 -235zM351 347q0 110 -10 158q-12 53 -41 53t-40 -53q-11 -48 -11 -158t11 -157q11 -53 40 -53t41 53q10 47 10 157z" />
    <glyph glyph-name="one" unicode="1" 
d="M467 0h-228v471q-59 -15 -148 -17l-28 133q95 11 165 44q58 28 74 57h165v-688z" />
    <glyph glyph-name="two" unicode="2" 
d="M530 0h-512l226 333q54 80 54 130q0 74 -81 74q-73 0 -125 -24l-50 140q88 45 218 45q151 0 220 -72q50 -53 50 -132q0 -86 -96 -198l-95 -111h191v-185z" />
    <glyph glyph-name="three" unicode="3" 
d="M544 218q0 -102 -81 -165t-215 -63q-142 0 -230 43l59 151q56 -29 133 -29q92 0 92 64q0 74 -141 74v115q133 14 133 83q0 50 -74 50q-66 0 -128 -26l-52 140q88 43 220 43q125 0 192 -50q64 -48 64 -131q0 -85 -90 -127v-2q118 -50 118 -170z" />
    <glyph glyph-name="four" unicode="4" 
d="M566 115h-47v-115h-213v115h-266v127l256 446h223v-456h47v-117zM311 484h-2q-7 -23 -47 -102l-86 -150h130v148q0 52 5 104z" />
    <glyph glyph-name="five" unicode="5" 
d="M552 218q0 -102 -81 -165t-214 -63q-144 0 -231 42l58 152q58 -29 134 -29q92 0 92 66q0 76 -140 76q-47 0 -107 -9l48 400h400v-184h-244l-8 -82q293 0 293 -204z" />
    <glyph glyph-name="six" unicode="6" 
d="M563 220q0 -108 -71.5 -169t-188.5 -61q-137 0 -206 90q-55 73 -55 184q0 134 73 240q60 86 159 140q83 46 155 52l56 -147q-50 -7 -101 -34q-63 -34 -96 -84q10 2 37 2q95 0 157 -41q81 -54 81 -172zM354 234q0 92 -80 92l-21 -3q-6 -27 -6 -68q0 -122 58 -122
q49 0 49 101z" />
    <glyph glyph-name="seven" unicode="7" 
d="M585 688l-82 -208q-123 -312 -152 -480h-271l234 504h-271v184h542z" />
    <glyph glyph-name="eight" unicode="8" 
d="M563 183q0 -89 -71.5 -141t-192.5 -52q-118 0 -190 50t-72 141q0 59 34 102q28 34 90 72q-106 73 -106 161q0 82 68 132t176 50q109 0 177.5 -49t68.5 -131q0 -87 -106 -155q124 -80 124 -180zM368 521q0 24 -18 40t-44 16q-28 0 -45 -15.5t-17 -39.5q0 -28 19 -51
q11 -13 43 -36q62 45 62 86zM360 185q0 28 -11 45q-13 23 -53 50q-34 -22 -48 -38q-19 -23 -19 -55q0 -23 19 -43t48 -20t46.5 17t17.5 44z" />
    <glyph glyph-name="nine" unicode="9" 
d="M558 423q0 -134 -73 -240q-60 -86 -159 -141q-84 -46 -155 -52l-56 148q50 7 101 34q63 34 96 84q-15 -3 -37 -3q-95 0 -156 41q-82 55 -82 173q0 107 75 169q72 60 190 60q137 0 203 -90q53 -71 53 -183zM350 440q0 122 -58 122q-49 0 -49 -101q0 -92 80 -92q3 0 21 3
q6 27 6 68z" />
    <glyph glyph-name="colon" unicode=":" horiz-adv-x="312" 
d="M276 431q0 -50 -35 -85.5t-85 -35.5q-49 0 -84.5 35.5t-35.5 84.5q0 50 35 85.5t85 35.5t85 -35t35 -85zM276 108q0 -49 -35 -84.5t-85 -35.5q-49 0 -84.5 35.5t-35.5 84.5q0 50 35 85.5t85 35.5t85 -35.5t35 -85.5z" />
    <glyph glyph-name="semicolon" unicode=";" horiz-adv-x="344" 
d="M308 431q0 -50 -35 -85.5t-85 -35.5q-49 0 -84.5 35.5t-35.5 84.5q0 50 35 85.5t85 35.5t85 -35t35 -85zM308 161l-188 -330h-131l101 330q42 67 125 67q82 0 93 -67z" />
    <glyph glyph-name="less" unicode="&#x3c;" 
d="M513 94l-426 172v125l426 173v-152l-253 -83l253 -84v-151z" />
    <glyph glyph-name="equal" unicode="=" 
d="M513 379h-426v140h426v-140zM513 139h-426v140h426v-140z" />
    <glyph glyph-name="greater" unicode="&#x3e;" 
d="M513 266l-426 -172v151l253 84l-253 83v152l426 -172v-126z" />
    <glyph glyph-name="question" unicode="?" horiz-adv-x="506" 
d="M496 518q0 -67 -53 -115q-39 -36 -98 -56l-10 -79h-171l-18 141q113 22 113 82q0 56 -78 56q-44 0 -96 -23l-55 132q84 43 201 43q124 0 194.5 -49.5t70.5 -131.5zM370 108q0 -49 -35 -84.5t-85 -35.5q-49 0 -84.5 35.5t-35.5 84.5q0 50 35 85.5t85 35.5t85 -35.5
t35 -85.5z" />
    <glyph glyph-name="at" unicode="@" horiz-adv-x="866" 
d="M826 415q0 -125 -62 -228q-73 -120 -186 -120q-40 0 -61 19q-17 16 -28 53q-69 -71 -138 -71q-70 0 -108 52q-34 46 -34 115q0 100 58 183q66 94 168 94q62 0 108 -56l10 38h95l-51 -227q-12 -53 -12 -76q0 -41 19 -41q58 0 99 96q35 83 35 166q0 102 -66 161t-169 59
q-162 0 -274 -125q-107 -119 -107 -276q0 -129 90 -207q85 -75 219 -75q190 0 343 147l47 -58q-81 -77 -164 -114q-101 -45 -229 -45q-174 0 -282 94q-112 97 -112 260q0 191 139 329t340 138q140 0 226.5 -78t86.5 -207zM510 346q0 34 -17 57q-20 27 -54 27q-57 0 -95 -73
q-31 -61 -31 -122q0 -42 23 -64q19 -19 45 -19q57 0 96 73q33 61 33 121z" />
    <glyph glyph-name="A" unicode="A" horiz-adv-x="641" 
d="M651 0h-239l-19 89h-176l-22 -89h-205l214 688h233zM364 219l-41 187q-9 43 -12 84h-2l-14 -83l-47 -188h116z" />
    <glyph glyph-name="B" unicode="B" horiz-adv-x="638" 
d="M610 193q0 -203 -306 -203q-164 0 -251 42v624q89 42 246 42q149 0 227 -57q70 -51 70 -138q0 -55 -38 -96q-30 -32 -73 -46v-2q50 -19 85 -59q40 -48 40 -107zM375 490q0 80 -73 80q-16 0 -27 -3v-159l17 -1q46 -3 64.5 17t18.5 66zM379 207q0 47 -17 68q-20 26 -70 23
l-17 -1v-168q10 -4 27 -4q43 0 60 19t17 63z" />
    <glyph glyph-name="C" unicode="C" horiz-adv-x="504" 
d="M485 34q-57 -44 -167 -44q-144 0 -220 111q-64 95 -64 243q0 146 67 242q77 112 220 112q104 0 164 -42l-46 -141q-27 15 -65 15q-102 0 -102 -184q0 -72 23 -120q26 -57 77 -57q34 0 63 16z" />
    <glyph glyph-name="D" unicode="D" horiz-adv-x="641" 
d="M607 342q0 -155 -68 -244q-81 -108 -255 -108q-142 0 -231 42v624q101 42 220 42q334 0 334 -356zM374 348q0 114 -17.5 155.5t-67.5 41.5q-4 0 -7 -1v-394q4 -1 11 -1q45 0 62 37q19 42 19 162z" />
    <glyph glyph-name="E" unicode="E" horiz-adv-x="477" 
d="M437 0h-384v688h384v-155h-151v-111h127v-151h-127v-116h151v-155z" />
    <glyph glyph-name="F" unicode="F" horiz-adv-x="471" 
d="M437 533h-151v-111h127v-151h-127v-271h-233v688h384v-155z" />
    <glyph glyph-name="G" unicode="G" horiz-adv-x="632" 
d="M583 33q-74 -43 -214 -43q-335 0 -335 356q0 152 83 247q92 105 261 105q123 0 205 -44l-68 -143q-40 22 -108 22q-140 0 -140 -188q0 -102 20 -148t65 -46q10 0 17 3v132h-48v136h262v-389z" />
    <glyph glyph-name="H" unicode="H" horiz-adv-x="662" 
d="M609 0h-233v271h-90v-271h-233v688h233v-266h90v266h233v-688z" />
    <glyph glyph-name="I" unicode="I" horiz-adv-x="339" 
d="M286 0h-233v688h233v-688z" />
    <glyph glyph-name="J" unicode="J" horiz-adv-x="339" 
d="M286 65q0 -142 -87 -215q-82 -70 -230 -70v160q37 0 60.5 25t23.5 72v651h233v-623z" />
    <glyph glyph-name="K" unicode="K" horiz-adv-x="663" 
d="M662 0h-258l-116 326h-2v-326h-233v688h233v-302h2l124 302h235l-154 -313z" />
    <glyph glyph-name="L" unicode="L" horiz-adv-x="456" 
d="M428 0h-375v688h233v-533h142v-155z" />
    <glyph glyph-name="M" unicode="M" horiz-adv-x="815" 
d="M790 0h-220q-3 40 -15 277q-2 40 -1 88h-2q-5 -22 -23 -88l-87 -277h-101q-16 45 -87 277q-14 44 -23 87h-2q2 -43 0 -87l-14 -277h-190l64 688h219l76 -272q10 -36 17 -77h2q5 18 21 76l83 273h218z" />
    <glyph glyph-name="N" unicode="N" horiz-adv-x="660" 
d="M607 0h-170l-164 271q-16 27 -28 60h-2q4 -35 4 -65v-266h-194v688h190l140 -222q18 -28 31 -60h2q-4 34 -4 62v220h195v-688z" />
    <glyph glyph-name="O" unicode="O" horiz-adv-x="646" 
d="M612 344q0 -156 -67 -249q-75 -105 -221 -105t-222 105q-68 93 -68 249t68 249q76 105 222 105t221 -105q67 -93 67 -249zM375 353q0 193 -51 193q-32 0 -44 -61q-8 -41 -8 -132t8 -132q12 -61 44 -61q51 0 51 193z" />
    <glyph glyph-name="P" unicode="P" horiz-adv-x="621" 
d="M595 466q0 -107 -71 -168q-78 -66 -230 -66h-14v-232h-227v656q99 42 246 42q154 0 231 -69q65 -60 65 -163zM374 467q0 56 -15 79t-58 23q-4 0 -11.5 -1t-9.5 -1v-204h15q45 0 62 22t17 82z" />
    <glyph glyph-name="Q" unicode="Q" horiz-adv-x="646" 
d="M612 344q0 -204 -110 -295l97 -114l-166 -147l-76 204q-22 -2 -33 -2q-146 0 -222 105q-68 93 -68 249t68 249q76 105 222 105t221 -105q67 -93 67 -249zM375 353q0 193 -51 193q-32 0 -44 -61q-8 -41 -8 -132t8 -132q12 -61 44 -61q51 0 51 193z" />
    <glyph glyph-name="R" unicode="R" horiz-adv-x="640" 
d="M636 0h-252l-100 286h-2v-286h-229v656q100 42 242 42q157 0 236 -62q74 -58 74 -163q0 -46 -34 -94t-77 -68l1 -2zM377 460q0 58 -13 80q-16 27 -65 27q-7 0 -17 -2v-217q4 -2 11 -2q83 0 84 114z" />
    <glyph glyph-name="S" unicode="S" horiz-adv-x="502" 
d="M473 218q0 -97 -71 -162.5t-183 -65.5q-135 0 -200 43l51 163q42 -33 101 -33q54 0 54 37q0 35 -71 71q-128 65 -128 196q0 98 67 164.5t176 66.5q110 0 181 -42l-47 -141q-48 28 -97 28q-53 0 -53 -38q0 -37 73 -74q89 -45 122 -101q25 -43 25 -112z" />
    <glyph glyph-name="T" unicode="T" horiz-adv-x="503" 
d="M471 533h-103v-533h-233v533h-103v155h439v-155z" />
    <glyph glyph-name="U" unicode="U" horiz-adv-x="634" 
d="M581 210q0 -105 -78 -166q-72 -56 -186 -56q-113 0 -186 56q-78 61 -78 165v479h233v-476q0 -48 40 -48q38 0 38 49v475h217v-478z" />
    <glyph glyph-name="V" unicode="V" horiz-adv-x="607" 
d="M617 688l-212 -688h-202l-213 688h245l67 -315q7 -31 10 -78h2q2 22 11 77l69 316h223z" />
    <glyph glyph-name="W" unicode="W" horiz-adv-x="864" 
d="M858 688l-148 -688h-206l-61 244q-8 31 -11 68h-2q-3 -26 -10 -68l-58 -244h-207l-149 688h226l45 -307q6 -39 7 -77h2q1 19 11 77l63 307h161l61 -307q8 -39 10 -77h2q1 19 7 77l47 307h210z" />
    <glyph glyph-name="X" unicode="X" horiz-adv-x="596" 
d="M606 0h-258l-58 163h-2l-60 -163h-238l179 347l-164 341h246l51 -153h2l64 153h223l-170 -312z" />
    <glyph glyph-name="Y" unicode="Y" horiz-adv-x="562" 
d="M576 688l-181 -415v-273h-232v273l-177 415h242l61 -209h1l66 209h220z" />
    <glyph glyph-name="Z" unicode="Z" horiz-adv-x="510" 
d="M475 0h-465l177 533h-147v155h434l-165 -533h166v-155z" />
    <glyph glyph-name="bracketleft" unicode="[" horiz-adv-x="389" 
d="M364 -215h-314v1000h314v-124h-119v-751h119v-125z" />
    <glyph glyph-name="backslash" unicode="\" 
d="M600 -172l-132 -64l-468 971l132 65z" />
    <glyph glyph-name="bracketright" unicode="]" horiz-adv-x="389" 
d="M339 -215h-314v125h119v751h-119v124h314v-1000z" />
    <glyph glyph-name="asciicircum" unicode="^" horiz-adv-x="648" 
d="M581 427l-92 -87l-164 180l-167 -180l-91 87l173 230q30 40 85 40q53 0 83 -40z" />
    <glyph glyph-name="underscore" unicode="_" 
d="M610 -245h-620v133h620v-133z" />
    <glyph glyph-name="grave" unicode="`" horiz-adv-x="300" 
d="M262 591h-121l-143 143q14 32 87 32q67 0 111 -25z" />
    <glyph glyph-name="a" unicode="a" horiz-adv-x="581" 
d="M534 32q-82 -42 -243 -42q-267 0 -267 180q0 94 91 141q71 36 210 48v16q0 39 -70 39q-74 0 -152 -33l-46 125q114 43 242 43q235 0 235 -219v-298zM325 115v146q-94 -4 -94 -81q0 -68 69 -68q19 0 25 3z" />
    <glyph glyph-name="b" unicode="b" horiz-adv-x="614" 
d="M584 291q0 -301 -308 -301q-158 0 -229 43v752h224v-253q45 15 91 15q98 0 160 -70.5t62 -185.5zM363 274q0 79 -10 107q-14 39 -57 39q-14 0 -25 -3v-293q8 -2 21 -2q71 0 71 152z" />
    <glyph glyph-name="c" unicode="c" horiz-adv-x="429" 
d="M412 32q-44 -42 -143 -42q-107 0 -171 71q-68 76 -68 212q0 132 73 208q65 68 162 68t145 -42l-43 -121q-20 17 -47 17q-64 0 -64 -129q0 -128 64 -128q29 0 47 18z" />
    <glyph glyph-name="d" unicode="d" horiz-adv-x="614" 
d="M567 32q-91 -42 -243 -42q-136 0 -212 67q-82 72 -82 214q0 124 67 199.5t172 75.5q53 0 74 -7v246h224v-753zM343 131v290q-4 2 -18 2q-74 0 -74 -145q0 -149 73 -149q7 0 19 2z" />
    <glyph glyph-name="e" unicode="e" horiz-adv-x="581" 
d="M550 237l-307 -42q19 -55 96 -55q87 0 147 27l48 -135q-91 -42 -225 -42q-135 0 -210 84q-69 76 -69 197q0 123 66 197q71 81 203 81q125 0 190 -77q62 -72 62 -200q0 -17 -1 -35zM344 317q0 105 -55 105q-64 0 -64 -95q0 -14 2 -29z" />
    <glyph glyph-name="f" unicode="f" horiz-adv-x="396" 
d="M376 392h-72v-392h-224v392h-55v147h55v34q0 104 64 161q61 55 167 55q31 0 65 -5v-142q-12 1 -21 1q-51 0 -51 -55v-49h72v-147z" />
    <glyph glyph-name="g" unicode="g" horiz-adv-x="608" 
d="M561 3q0 -121 -77 -180q-68 -52 -188 -52q-150 0 -235 44l52 143q64 -32 142 -32q88 0 88 61v22q-28 -10 -81 -10q-100 0 -164 67q-68 71 -68 187q0 143 77.5 219.5t230.5 76.5q150 0 223 -42v-504zM343 127v291q-7 3 -21 3q-39 0 -55 -34t-16 -119q0 -79 16.5 -111.5
t54.5 -32.5q12 0 21 3z" />
    <glyph glyph-name="h" unicode="h" horiz-adv-x="620" 
d="M573 0h-224v367q0 47 -51 47q-19 0 -27 -3v-411h-224v785h224v-254q51 17 108 17q96 0 147 -50q47 -46 47 -126v-372z" />
    <glyph glyph-name="i" unicode="i" horiz-adv-x="318" 
d="M273 696q0 -41 -33.5 -69.5t-80.5 -28.5t-80.5 28.5t-33.5 69.5t33.5 69.5t80.5 28.5t80.5 -28.5t33.5 -69.5zM271 0h-224v539h224v-539z" />
    <glyph glyph-name="j" unicode="j" horiz-adv-x="318" 
d="M273 696q0 -41 -33 -69.5t-80 -28.5q-48 0 -81.5 28.5t-33.5 69.5t33.5 69.5t80.5 28.5q48 0 81 -29t33 -69zM271 89q0 -147 -82 -232t-221 -85v148q46 13 61 37q18 29 18 100v482h224v-450z" />
    <glyph glyph-name="k" unicode="k" horiz-adv-x="618" 
d="M628 0h-249l-105 266h-2v-266h-224v785h224v-472h1l111 226h220l-133 -231z" />
    <glyph glyph-name="l" unicode="l" horiz-adv-x="318" 
d="M271 0h-224v785h224v-785z" />
    <glyph glyph-name="m" unicode="m" horiz-adv-x="922" 
d="M875 0h-224v369q0 43 -51 43q-13 0 -27 -4v-408h-224v367q0 44 -49 44q-5 0 -29 -3v-408h-224v507q100 43 249 43q115 0 176 -44q69 43 191 43q96 0 154 -48.5t58 -133.5v-367z" />
    <glyph glyph-name="n" unicode="n" horiz-adv-x="620" 
d="M573 0h-224v366q0 46 -48 46q-9 0 -30 -3v-409h-224v508q101 41 254 41q272 0 272 -181v-368z" />
    <glyph glyph-name="o" unicode="o" horiz-adv-x="590" 
d="M560 270q0 -125 -70 -201q-73 -79 -195 -79t-195 79q-70 76 -70 201q0 124 71.5 201.5t193.5 77.5t195 -79q70 -76 70 -200zM338 274q0 136 -43 136t-43 -136q0 -134 43 -134t43 134z" />
    <glyph glyph-name="p" unicode="p" horiz-adv-x="614" 
d="M584 268q0 -124 -67.5 -199.5t-172.5 -75.5q-52 0 -73 7v-215h-224v722q94 42 243 42q136 0 212 -67q82 -72 82 -214zM363 269q0 80 -16.5 114.5t-56.5 34.5q-14 0 -19 -1v-291q8 -2 18 -2q40 0 57 34.5t17 110.5z" />
    <glyph glyph-name="q" unicode="q" horiz-adv-x="614" 
d="M567 -215h-224v222q-40 -15 -87 -15q-97 0 -160 70q-66 71 -66 186q0 136 68 213q78 88 240 88q148 0 229 -42v-722zM343 128v291q-8 2 -21 2q-71 0 -71 -152q0 -144 67 -144q16 0 25 3z" />
    <glyph glyph-name="r" unicode="r" horiz-adv-x="396" 
d="M393 546l-38 -153q-42 25 -84 16v-409h-224v507q88 42 254 42q44 0 92 -3z" />
    <glyph glyph-name="s" unicode="s" horiz-adv-x="449" 
d="M423 173q0 -83 -60.5 -133t-168.5 -50q-110 0 -178 42l56 140q41 -31 87 -31q33 0 33 25q0 28 -48 49q-115 49 -115 150q0 79 55.5 131.5t143.5 52.5q108 0 183 -42l-53 -125q-33 27 -74 27q-35 0 -35 -28q0 -30 48 -52q73 -33 102 -73q24 -32 24 -83z" />
    <glyph glyph-name="t" unicode="t" horiz-adv-x="408" 
d="M376 11q-31 -22 -105 -22q-93 0 -144 50q-47 47 -47 126v227h-55v147h55v105l224 55v-160h72v-147h-72v-205q0 -49 33 -49q16 0 39 10v-137z" />
    <glyph glyph-name="u" unicode="u" horiz-adv-x="615" 
d="M568 32q-88 -42 -260 -42q-133 0 -194 43q-67 47 -67 156v350h224v-368q0 -33 39 -33q19 0 34 5v396h224v-507z" />
    <glyph glyph-name="v" unicode="v" horiz-adv-x="556" 
d="M557 539l-167 -539h-223l-168 539h237l39 -234q8 -45 11 -98h3q2 24 13 98l44 234h211z" />
    <glyph glyph-name="w" unicode="w" horiz-adv-x="836" 
d="M829 539l-142 -539h-211l-46 198q-9 37 -11 87h-1q-1 -24 -11 -87l-47 -198h-211l-142 539h221l36 -234q8 -49 8 -94h1q6 39 15 93l53 235h181l49 -234q10 -47 12 -94h2q4 39 10 93l40 235h194z" />
    <glyph glyph-name="x" unicode="x" horiz-adv-x="566" 
d="M576 0h-247l-53 126h-3l-57 -126h-226l171 277l-154 262h234l52 -114h2l59 114h207l-159 -248z" />
    <glyph glyph-name="y" unicode="y" horiz-adv-x="556" 
d="M557 539l-238 -754h-233l84 215l-171 539h236l36 -237q8 -51 10 -101h2q2 23 15 102l48 236h211z" />
    <glyph glyph-name="z" unicode="z" horiz-adv-x="461" 
d="M433 0h-413l140 392h-120v147h393l-126 -392h126v-147z" />
    <glyph glyph-name="braceleft" unicode="{" horiz-adv-x="439" 
d="M404 -122q-286 0 -286 204v128q0 71 -98 71v111q98 0 98 64v126q0 203 286 203v-107q-55 0 -75.5 -18.5t-20.5 -62.5v-141q0 -101 -108 -119q1 -1 0 -2q48 -8 77 -38q31 -34 31 -87v-143q0 -43 21 -61.5t75 -18.5v-109z" />
    <glyph glyph-name="bar" unicode="|" horiz-adv-x="270" 
d="M220 -215h-170v1000h170v-1000z" />
    <glyph glyph-name="braceright" unicode="}" horiz-adv-x="439" 
d="M419 281q-98 0 -98 -71v-128q0 -204 -286 -204v109q54 0 75 18.5t21 61.5v143q0 53 32 87q29 30 77 38q-2 2 -1 2q-108 18 -108 119v141q0 44 -20.5 62.5t-75.5 18.5v107q286 0 286 -203v-126q0 -64 98 -64v-111z" />
    <glyph glyph-name="asciitilde" unicode="~" horiz-adv-x="648" 
d="M584 358q-28 -76 -131 -84q-48 -4 -120.5 30t-108.5 31q-75 -6 -104 -82l-56 144q42 84 131 91q48 4 118.5 -30t105.5 -31q79 7 109 75z" />
    <glyph glyph-name="nonbreakingspace" unicode="&#xa0;" horiz-adv-x="260" 
 />
    <glyph glyph-name="exclamdown" unicode="&#xa1;" horiz-adv-x="373" 
d="M314 364q0 -49 -35 -84.5t-85 -35.5t-85 35t-35 85t35 85t85 35t85 -35t35 -85zM328 -215h-268l48 420h172z" />
    <glyph glyph-name="cent" unicode="&#xa2;" 
d="M447 141q-34 -27 -105 -34l14 -107h-127l16 114q-165 42 -165 237q0 94 48 157q44 56 117 75l-13 105h124l-12 -99q68 -7 101 -33l-41 -107q-21 14 -45 14q-65 0 -65 -111q0 -109 66 -109q26 0 45 14z" />
    <glyph glyph-name="sterling" unicode="&#xa3;" 
d="M550 0h-500q119 127 119 238q0 34 -9 61h-100v128h64q-9 40 -9 84q0 75 51 126q61 60 178 60q128 0 202 -41l-45 -135q-40 21 -94 21q-82 0 -82 -85q0 -15 3 -30h136v-128h-119q3 -15 3 -43q0 -44 -19 -71h221v-185z" />
    <glyph glyph-name="currency" unicode="&#xa4;" 
d="M555 158l-67 -67l-66 65q-56 -35 -122 -35t-122 36l-66 -66l-67 67l66 66q-36 57 -36 122q0 64 36 121l-66 66l67 67l66 -65q57 36 122 36t122 -36l66 65l67 -67l-66 -65q36 -55 36 -122t-36 -123zM390 346q0 37 -26.5 63.5t-63.5 26.5t-63.5 -26.5t-26.5 -63.5
t26.5 -63.5t63.5 -26.5q38 0 64 26.5t26 63.5z" />
    <glyph glyph-name="yen" unicode="&#xa5;" 
d="M584 688l-115 -253l89 8v-86l-120 7l-29 -64l149 7v-86l-153 7v-228h-211v228l-152 -7v86l148 -7l-28 64l-120 -7v86l88 -8l-114 253h225l66 -215h2l74 215h201z" />
    <glyph glyph-name="brokenbar" unicode="&#xa6;" horiz-adv-x="270" 
d="M220 381h-170v404h170v-404zM220 -215h-170v403h170v-403z" />
    <glyph glyph-name="section" unicode="&#xa7;" 
d="M546 224q0 -91 -106 -161q51 -54 51 -124q0 -67 -55 -112q-59 -48 -152 -48q-118 0 -185 44l47 130q41 -31 95 -31q46 0 46 29q0 23 -26 45l-117 98q-49 41 -69.5 80t-20.5 94q0 99 101 164q-40 44 -40 102q0 67 50 112q55 49 146 49q109 0 178 -42l-44 -115
q-39 25 -84 25q-46 0 -46 -35q0 -24 33 -52l116 -97q82 -69 82 -155zM377 205q0 33 -33 61l-104 88q-31 -20 -31 -53q0 -38 31 -64l105 -87q32 25 32 55z" />
    <glyph glyph-name="dieresis" unicode="&#xa8;" horiz-adv-x="300" 
d="M354 665q0 -33 -27.5 -55.5t-64.5 -22.5q-38 0 -65 22.5t-27 55.5t27 55.5t65 22.5q37 0 64.5 -22.5t27.5 -55.5zM130 665q0 -33 -27.5 -55.5t-65.5 -22.5q-37 0 -64 22.5t-27 55.5t27 55.5t64 22.5q38 0 65.5 -22.5t27.5 -55.5z" />
    <glyph glyph-name="copyright" unicode="&#xa9;" horiz-adv-x="780" 
d="M746 344q0 -148 -104.5 -252t-251.5 -104t-251.5 104t-104.5 252t104.5 252t251.5 104t251.5 -104.5t104.5 -251.5zM666 344q0 115 -80 196.5t-196 81.5t-196 -81.5t-80 -196.5t80 -196.5t196 -81.5t196 81.5t80 196.5zM553 212q-72 -73 -159 -73q-86 0 -147.5 60.5
t-61.5 146.5t61.5 146.5t147.5 60.5q91 0 156 -72l-67 -54q-42 42 -89 42q-50 0 -85.5 -36.5t-35.5 -86.5t35.5 -86.5t85.5 -36.5q47 0 90 43z" />
    <glyph glyph-name="ordfeminine" unicode="&#xaa;" horiz-adv-x="405" 
d="M365 354q-54 -27 -160 -27q-175 0 -175 118q0 64 59 95q46 24 136 31v9q0 25 -45 25q-47 0 -99 -20l-30 82q74 28 160 28q154 0 154 -144v-197zM225 409v95q-60 -6 -60 -54q0 -43 43 -43q9 0 17 2z" />
    <glyph glyph-name="guillemotleft" unicode="&#xab;" horiz-adv-x="580" 
d="M540 147l-123 -68l-146 255l146 256l123 -68l-107 -188zM289 147l-123 -68l-146 255l146 256l123 -68l-107 -188z" />
    <glyph glyph-name="logicalnot" unicode="&#xac;" 
d="M513 119h-143v140h-283v140h426v-280z" />
    <glyph glyph-name="minus" unicode="&#xad;" 
d="M513 259h-426v140h426v-140z" />
    <glyph glyph-name="minus" unicode="&#x2212;" 
d="M513 259h-426v140h426v-140z" />
    <glyph glyph-name="registered" unicode="&#xae;" horiz-adv-x="780" 
d="M746 344q0 -148 -104.5 -252t-251.5 -104t-251.5 104t-104.5 252t104.5 252t251.5 104t251.5 -104.5t104.5 -251.5zM666 344q0 115 -80.5 197.5t-195.5 82.5t-195.5 -82.5t-80.5 -197.5t80 -196.5t196 -81.5t196 81.5t80 196.5zM554 154h-109l-97 156h-3v-156h-86v376
q52 26 112 26q79 0 121 -41q34 -33 34 -80q0 -86 -87 -115zM437 433q0 52 -70 52q-13 0 -22 -3v-115h13q43 0 61 14.5t18 51.5z" />
    <glyph glyph-name="macron" unicode="&#xaf;" horiz-adv-x="300" 
d="M333 620h-366v110h366v-110z" />
    <glyph glyph-name="macron" unicode="&#x2c9;" horiz-adv-x="300" 
d="M333 620h-366v110h366v-110z" />
    <glyph glyph-name="degree" unicode="&#xb0;" horiz-adv-x="410" 
d="M370 537q0 -68 -48.5 -116.5t-116.5 -48.5t-116.5 48.5t-48.5 116.5t48.5 116.5t116.5 48.5t116.5 -48.5t48.5 -116.5zM271 537q0 27 -19.5 46.5t-46.5 19.5t-46.5 -19.5t-19.5 -46.5t19.5 -46.5t46.5 -19.5t46.5 19.5t19.5 46.5z" />
    <glyph glyph-name="plusminus" unicode="&#xb1;" 
d="M513 359h-143v-126h-140v126h-143v126h143v126h140v-126h143v-126zM513 63h-426v126h426v-126z" />
    <glyph glyph-name="twosuperior" unicode="&#xb2;" horiz-adv-x="400" 
d="M360 252h-340l145 214q33 49 33 76q0 41 -54 41q-33 0 -71 -14l-35 97q56 28 141 28q172 0 172 -131q0 -53 -61 -126l-51 -61h121v-124z" />
    <glyph glyph-name="threesuperior" unicode="&#xb3;" horiz-adv-x="400" 
d="M364 394q0 -66 -52.5 -106.5t-136.5 -40.5q-89 0 -149 29l39 103q36 -18 86 -18q51 0 51 32q0 42 -86 42v81q82 8 82 43q0 31 -51 31q-38 0 -71 -16l-36 93q60 29 142 29q79 0 121.5 -31.5t42.5 -85.5q0 -51 -51 -79q69 -33 69 -106z" />
    <glyph glyph-name="acute" unicode="&#xb4;" horiz-adv-x="300" 
d="M302 734l-143 -143h-121l66 150q44 25 111 25q73 0 87 -32z" />
    <glyph glyph-name="mu" unicode="&#xb5;" horiz-adv-x="620" 
d="M573 32q-81 -42 -190 -42q-65 0 -112 18v-223h-224v754h224v-412q18 -5 35 -5q31 0 43 6v411h224v-507z" />
    <glyph glyph-name="mu" unicode="&#x3bc;" horiz-adv-x="620" 
d="M573 32q-81 -42 -190 -42q-65 0 -112 18v-223h-224v754h224v-412q18 -5 35 -5q31 0 43 6v411h224v-507z" />
    <glyph glyph-name="paragraph" unicode="&#xb6;" 
d="M563 596h-37v-811h-125v811h-75v-811h-127v483q-84 18 -133 71t-49 132q0 110 79 166q72 51 196 51h271v-92z" />
    <glyph glyph-name="periodcentered" unicode="&#xb7;" horiz-adv-x="320" 
d="M280 344q0 -49 -35 -84.5t-85 -35.5q-49 0 -84.5 35.5t-35.5 84.5q0 50 35.5 85t84.5 35q50 0 85 -35t35 -85z" />
    <glyph glyph-name="periodcentered" unicode="&#x2219;" horiz-adv-x="320" 
d="M280 344q0 -49 -35 -84.5t-85 -35.5q-49 0 -84.5 35.5t-35.5 84.5q0 50 35.5 85t84.5 35q50 0 85 -35t35 -85z" />
    <glyph glyph-name="cedilla" unicode="&#xb8;" horiz-adv-x="300" 
d="M302 -123q0 -46 -56 -71t-155 -25q-44 0 -93 5l34 63q26 -3 49 -3q88 0 88 29q0 21 -57 21q-22 0 -56 -3l33 56q39 3 69 3q144 0 144 -75z" />
    <glyph glyph-name="onesuperior" unicode="&#xb9;" horiz-adv-x="400" 
d="M310 252h-152l1 293q-40 -9 -90 -10l-19 90q118 13 150 63h110v-436z" />
    <glyph glyph-name="ordmasculine" unicode="&#xba;" horiz-adv-x="405" 
d="M380 512q0 -82 -48.5 -133.5t-129.5 -51.5t-129 51.5t-48 133.5q0 81 48.5 132.5t128.5 51.5q81 0 129.5 -51.5t48.5 -132.5zM233 514q0 90 -31 90q-30 0 -30 -89t30 -89q31 0 31 88z" />
    <glyph glyph-name="guillemotright" unicode="&#xbb;" horiz-adv-x="580" 
d="M560 334l-146 -255l-123 68l107 187l-107 188l123 68zM309 334l-146 -255l-123 68l107 187l-107 188l123 68z" />
    <glyph glyph-name="onequarter" unicode="&#xbc;" horiz-adv-x="900" 
d="M860 72h-29v-72h-145v72h-162v86l160 279h147l-1 -284h30v-81zM651 682l-291 -720l-113 45l290 720zM282 252h-152v293q-40 -9 -91 -10l-19 90q122 13 151 63h111v-436zM687 303h-2q-9 -20 -38 -74l-43 -76h81v74q0 33 2 76z" />
    <glyph glyph-name="onehalf" unicode="&#xbd;" horiz-adv-x="900" 
d="M860 0h-341l146 214q33 48 33 76q0 41 -54 41q-25 0 -58 -13l-36 97q58 27 129 27q172 0 172 -131q0 -53 -61 -126l-51 -61h121v-124zM635 682l-291 -720l-113 45l290 720zM282 252h-152v293q-40 -9 -91 -10l-19 90q122 13 151 63h111v-436z" />
    <glyph glyph-name="threequarters" unicode="&#xbe;" horiz-adv-x="900" 
d="M865 72h-29v-72h-145v72h-162v86l160 279h147l-1 -284h30v-81zM680 682l-291 -720l-113 45l290 720zM362 394q0 -66 -52 -106.5t-136 -40.5q-89 0 -149 29l39 103q36 -18 86 -18q51 0 51 32q0 42 -86 42v81q82 8 82 43q0 31 -51 31q-38 0 -71 -16l-36 93q60 29 142 29
q79 0 121.5 -31.5t42.5 -85.5q0 -51 -51 -79q68 -32 68 -106zM692 303h-2q-9 -19 -38 -74l-44 -76h82v74q0 33 2 76z" />
    <glyph glyph-name="questiondown" unicode="&#xbf;" horiz-adv-x="506" 
d="M396 366q0 -49 -35 -84.5t-85 -35.5q-49 0 -84.5 35.5t-35.5 84.5q0 50 35.5 85t84.5 35q50 0 85 -35t35 -85zM496 -182q-86 -42 -200 -42q-125 0 -195.5 49t-70.5 132q0 118 151 171l10 79h171l18 -141q-113 -22 -113 -83q0 -56 78 -56q42 0 96 24z" />
    <glyph glyph-name="Agrave" unicode="&#xc0;" horiz-adv-x="641" 
d="M390 739h-121l-143 144q14 32 85 32q68 0 112 -26zM651 0h-239l-19 89h-176l-22 -89h-205l214 688h233zM364 219l-41 187q-9 43 -12 84h-2l-14 -83l-47 -188h116z" />
    <glyph glyph-name="Aacute" unicode="&#xc1;" horiz-adv-x="641" 
d="M510 883l-143 -144h-121l66 150q45 26 112 26q72 0 86 -32zM651 0h-239l-19 89h-176l-22 -89h-205l214 688h233zM364 219l-41 187q-9 43 -12 84h-2l-14 -83l-47 -188h116z" />
    <glyph glyph-name="Acircumflex" unicode="&#xc2;" horiz-adv-x="641" 
d="M485 778l-59 -55l-107 73l-106 -73l-60 55l111 111q22 22 55 22t55 -22zM651 0h-239l-19 89h-176l-22 -89h-205l214 688h233zM364 219l-41 187q-9 43 -12 84h-2l-14 -83l-47 -188h116z" />
    <glyph glyph-name="Atilde" unicode="&#xc3;" horiz-adv-x="641" 
d="M493 797q-19 -52 -89 -58q-33 -3 -82 20.5t-73 21.5q-50 -4 -72 -56l-38 98q28 57 90 62q32 3 80 -20t72 -21q54 5 74 51zM651 0h-239l-19 89h-176l-22 -89h-205l214 688h233zM364 219l-41 187q-9 43 -12 84h-2l-14 -83l-47 -188h116z" />
    <glyph glyph-name="Adieresis" unicode="&#xc4;" horiz-adv-x="641" 
d="M525 808q0 -33 -27.5 -55.5t-65.5 -22.5q-37 0 -64 22.5t-27 55.5t27 56t64 23q38 0 65.5 -23t27.5 -56zM300 808q0 -33 -27.5 -55.5t-65.5 -22.5q-37 0 -64 22.5t-27 55.5t27 56t64 23q38 0 65.5 -23t27.5 -56zM651 0h-239l-19 89h-176l-22 -89h-205l214 688h233z
M364 219l-41 187q-9 43 -12 84h-2l-14 -83l-47 -188h116z" />
    <glyph glyph-name="Aring" unicode="&#xc5;" horiz-adv-x="641" 
d="M416 826q0 -40 -28 -68t-68 -28t-68.5 28t-28.5 68t28 68t68 28t68.5 -28t28.5 -68zM651 0h-239l-19 89h-176l-22 -89h-205l214 688h233zM355 826q0 15 -10.5 25.5t-25.5 10.5q-14 0 -24.5 -10.5t-10.5 -25.5t10.5 -25.5t24.5 -10.5q15 0 25.5 10.5t10.5 25.5zM365 219
l-42 187q-10 43 -12 84h-2l-14 -83l-47 -188h117z" />
    <glyph glyph-name="AE" unicode="&#xc6;" horiz-adv-x="771" 
d="M741 0h-342l-10 89h-175l-32 -89h-207l290 688h402v-155h-152l23 -111h129v-151h-98l24 -116h148v-155zM377 223l-21 182q-4 32 -4 72h-2q-3 -19 -19 -72l-64 -182h110z" />
    <glyph glyph-name="Ccedilla" unicode="&#xc7;" horiz-adv-x="504" 
d="M485 34q-57 -44 -167 -44q-144 0 -220 111q-64 95 -64 243q0 146 67 242q77 112 220 112q104 0 164 -42l-46 -141q-27 15 -65 15q-102 0 -102 -184q0 -72 23 -120q26 -57 77 -57q34 0 63 16zM430 -123q0 -46 -56 -71t-156 -25q-43 0 -92 5l34 63q26 -3 49 -3q88 0 88 29
q0 21 -57 21q-23 0 -56 -3l32 56q39 3 70 3q144 0 144 -75z" />
    <glyph glyph-name="Egrave" unicode="&#xc8;" horiz-adv-x="474" 
d="M336 739h-121l-143 144q14 32 85 32q68 0 112 -26zM437 0h-384v688h384v-155h-151v-111h127v-151h-127v-116h151v-155z" />
    <glyph glyph-name="Eacute" unicode="&#xc9;" horiz-adv-x="474" 
d="M419 883l-143 -144h-121l66 150q45 26 112 26q72 0 86 -32zM437 0h-384v688h384v-155h-151v-111h127v-151h-127v-116h151v-155z" />
    <glyph glyph-name="Ecircumflex" unicode="&#xca;" horiz-adv-x="474" 
d="M402 778l-59 -55l-107 73l-106 -73l-60 55l111 111q22 22 55 22t55 -22zM437 0h-384v688h384v-155h-151v-111h127v-151h-127v-116h151v-155z" />
    <glyph glyph-name="Edieresis" unicode="&#xcb;" horiz-adv-x="474" 
d="M449 808q0 -33 -27.5 -55.5t-64.5 -22.5q-38 0 -65 22.5t-27 55.5t27 56t65 23q37 0 64.5 -23t27.5 -56zM225 808q0 -33 -27.5 -55.5t-65.5 -22.5q-37 0 -64 22.5t-27 55.5t27 56t64 23q38 0 65.5 -23t27.5 -56zM438 0h-384v688h384v-155h-151v-111h127v-151h-127v-116
h151v-155z" />
    <glyph glyph-name="Igrave" unicode="&#xcc;" horiz-adv-x="339" 
d="M259 739h-121l-143 144q14 32 86 32q67 0 112 -26zM285 0h-233v688h233v-688z" />
    <glyph glyph-name="Iacute" unicode="&#xcd;" horiz-adv-x="339" 
d="M344 883l-143 -144h-121l66 150q45 26 112 26q72 0 86 -32zM287 0h-233v688h233v-688z" />
    <glyph glyph-name="Icircumflex" unicode="&#xce;" horiz-adv-x="339" 
d="M335 777l-59 -55l-107 74l-106 -74l-59 55l110 112q22 22 55 22q34 0 56 -22zM286 0h-233v688h233v-688z" />
    <glyph glyph-name="Idieresis" unicode="&#xcf;" horiz-adv-x="339" 
d="M374 808q0 -33 -27.5 -55.5t-64.5 -22.5q-38 0 -65 22.5t-27 55.5t27 56t65 23q37 0 64.5 -23t27.5 -56zM149 808q0 -33 -27.5 -55.5t-65.5 -22.5q-37 0 -64 22.5t-27 55.5t27 56t64 23q38 0 65.5 -23t27.5 -56zM285 0h-233v688h233v-688z" />
    <glyph glyph-name="Eth" unicode="&#xd0;" horiz-adv-x="660" 
d="M626 343q0 -155 -70 -245q-84 -108 -259 -108q-147 0 -233 43v260h-40v138h40v225q101 42 223 42q181 0 267 -107q72 -90 72 -248zM396 348q0 112 -21.5 156t-75.5 44q-6 0 -10 -1v-116h44v-138h-44v-146q4 -1 13 -1q49 0 70 38q24 45 24 164z" />
    <glyph glyph-name="Ntilde" unicode="&#xd1;" horiz-adv-x="660" 
d="M501 797q-19 -52 -89 -58q-33 -3 -82 20.5t-73 21.5q-50 -4 -72 -56l-38 98q28 57 90 62q32 3 80 -20t72 -21q54 5 74 51zM607 0h-170l-164 271q-16 27 -28 60h-2q4 -35 4 -65v-266h-194v688h190l140 -222q18 -28 31 -60h2q-4 34 -4 62v220h195v-688z" />
    <glyph glyph-name="Ograve" unicode="&#xd2;" horiz-adv-x="646" 
d="M415 739h-121l-143 144q14 32 85 32q68 0 112 -26zM612 344q0 -156 -67 -249q-75 -105 -221 -105t-222 105q-68 93 -68 249t68 249q76 105 222 105t221 -105q67 -93 67 -249zM375 353q0 193 -51 193q-32 0 -44 -61q-8 -41 -8 -132t8 -132q12 -61 44 -61q51 0 51 193z" />
    <glyph glyph-name="Oacute" unicode="&#xd3;" horiz-adv-x="646" 
d="M496 883l-143 -144h-121l66 150q45 26 112 26q72 0 86 -32zM612 344q0 -156 -67 -249q-75 -105 -221 -105t-222 105q-68 93 -68 249t68 249q76 105 222 105t221 -105q67 -93 67 -249zM375 353q0 193 -51 193q-32 0 -44 -61q-8 -41 -8 -132t8 -132q12 -61 44 -61
q51 0 51 193z" />
    <glyph glyph-name="Ocircumflex" unicode="&#xd4;" horiz-adv-x="646" 
d="M490 778l-59 -55l-107 73l-106 -73l-60 55l111 111q22 22 55 22t55 -22zM612 344q0 -156 -67 -249q-75 -105 -221 -105t-222 105q-68 93 -68 249t68 249q76 105 222 105t221 -105q67 -93 67 -249zM375 353q0 193 -51 193q-32 0 -44 -61q-8 -41 -8 -132t8 -132
q12 -61 44 -61q51 0 51 193z" />
    <glyph glyph-name="Otilde" unicode="&#xd5;" horiz-adv-x="646" 
d="M503 797q-19 -52 -89 -58q-33 -3 -82 20.5t-73 21.5q-50 -4 -72 -56l-38 98q28 57 90 62q32 3 80 -20t72 -21q54 5 74 51zM612 344q0 -156 -67 -249q-75 -105 -221 -105t-222 105q-68 93 -68 249t68 249q76 105 222 105t221 -105q67 -93 67 -249zM375 353q0 193 -51 193
q-32 0 -44 -61q-8 -41 -8 -132t8 -132q12 -61 44 -61q51 0 51 193z" />
    <glyph glyph-name="Odieresis" unicode="&#xd6;" horiz-adv-x="646" 
d="M528 808q0 -33 -27.5 -55.5t-64.5 -22.5q-38 0 -64.5 22.5t-26.5 55.5t26.5 56t64.5 23q37 0 64.5 -23t27.5 -56zM303 808q0 -33 -27.5 -55.5t-64.5 -22.5q-38 0 -64.5 22.5t-26.5 55.5t26.5 56t64.5 23q37 0 64.5 -23t27.5 -56zM612 344q0 -156 -67 -249
q-75 -105 -221 -105t-222 105q-68 93 -68 249t68 249q76 105 222 105t221 -105q67 -93 67 -249zM375 353q0 193 -51 193q-32 0 -44 -61q-8 -41 -8 -132t8 -132q12 -61 44 -61q51 0 51 193z" />
    <glyph glyph-name="multiply" unicode="&#xd7;" 
d="M519 203l-93 -93l-126 126l-125 -126l-93 94l124 125l-125 126l93 93l126 -126l125 126l94 -94l-126 -125z" />
    <glyph glyph-name="Oslash" unicode="&#xd8;" horiz-adv-x="646" 
d="M612 344q0 -156 -67 -249q-75 -105 -221 -105q-95 0 -163 46l-58 -92l-58 36l66 103q-77 94 -77 261q0 156 68 249q76 105 222 105q88 0 153 -41l53 85l58 -36l-59 -93q83 -93 83 -269zM378 502q-16 60 -54 60q-68 0 -68 -209v-42zM391 353q0 29 -1 43l-121 -191
q16 -61 55 -61q67 0 67 209z" />
    <glyph glyph-name="Ugrave" unicode="&#xd9;" horiz-adv-x="634" 
d="M418 739h-121l-143 144q14 32 85 32q68 0 112 -26zM581 210q0 -105 -78 -166q-72 -56 -186 -56q-113 0 -186 56q-78 61 -78 165v479h233v-476q0 -48 40 -48q38 0 38 49v475h217v-478z" />
    <glyph glyph-name="Uacute" unicode="&#xda;" horiz-adv-x="634" 
d="M496 883l-143 -144h-121l66 150q45 26 112 26q72 0 86 -32zM581 210q0 -105 -78 -166q-72 -56 -186 -56q-113 0 -186 56q-78 61 -78 165v479h233v-476q0 -48 40 -48q38 0 38 49v475h217v-478z" />
    <glyph glyph-name="Ucircumflex" unicode="&#xdb;" horiz-adv-x="634" 
d="M491 778l-59 -55l-107 73l-106 -73l-60 55l111 111q22 22 55 22t55 -22zM581 210q0 -105 -78 -166q-72 -56 -186 -56q-113 0 -186 56q-78 61 -78 165v479h233v-476q0 -48 40 -48q38 0 38 49v475h217v-478z" />
    <glyph glyph-name="Udieresis" unicode="&#xdc;" horiz-adv-x="634" 
d="M529 808q0 -33 -27.5 -55.5t-64.5 -22.5q-38 0 -64.5 22.5t-26.5 55.5t26.5 56t64.5 23q37 0 64.5 -23t27.5 -56zM304 808q0 -33 -27.5 -55.5t-64.5 -22.5q-38 0 -64.5 22.5t-26.5 55.5t26.5 56t64.5 23q37 0 64.5 -23t27.5 -56zM581 210q0 -105 -78 -166
q-72 -56 -186 -56q-113 0 -186 56q-78 61 -78 165v479h233v-476q0 -48 40 -48q38 0 38 49v475h217v-478z" />
    <glyph glyph-name="Yacute" unicode="&#xdd;" horiz-adv-x="562" 
d="M478 883l-143 -144h-121l66 150q45 26 112 26q72 0 86 -32zM576 688l-181 -415v-273h-232v273l-177 415h246l61 -209h1l66 209h216z" />
    <glyph glyph-name="Thorn" unicode="&#xde;" horiz-adv-x="621" 
d="M595 358q0 -104 -60 -165q-69 -69 -203 -69q-18 0 -37 1l-15 1v-126h-227v688h227v-103q9 2 31 2q284 0 284 -229zM374 359q0 98 -77 98q-12 0 -17 -1v-195h8q49 0 69 24q17 22 17 74z" />
    <glyph glyph-name="germandbls" unicode="&#xdf;" horiz-adv-x="654" 
d="M628 178q0 -91 -62 -142q-55 -45 -140 -45q-88 0 -127 37l32 144q22 -19 45 -19q32 0 32 31q0 29 -36 57q-59 46 -59 125q0 78 59 117q4 15 4 39q0 122 -52 122q-54 0 -54 -144v-500h-223v480q0 148 73.5 231.5t203.5 83.5q120 0 196 -78q72 -75 72 -185q0 -55 -10 -85
q-62 -16 -62 -62q0 -30 42 -67q66 -57 66 -140z" />
    <glyph glyph-name="agrave" unicode="&#xe0;" horiz-adv-x="581" 
d="M393 591h-121l-143 143q14 32 87 32q67 0 110 -25zM534 32q-82 -42 -243 -42q-267 0 -267 180q0 94 91 141q71 36 210 48v16q0 39 -70 39q-74 0 -152 -33l-46 125q114 43 242 43q235 0 235 -219v-298zM325 115v146q-94 -4 -94 -81q0 -68 69 -68q19 0 25 3z" />
    <glyph glyph-name="aacute" unicode="&#xe1;" horiz-adv-x="581" 
d="M494 734l-143 -143h-121l66 150q44 25 111 25q73 0 87 -32zM534 32q-82 -42 -243 -42q-267 0 -267 180q0 94 91 141q71 36 210 48v16q0 39 -70 39q-74 0 -152 -33l-46 125q114 43 242 43q235 0 235 -219v-298zM325 115v146q-94 -4 -94 -81q0 -68 69 -68q19 0 25 3z" />
    <glyph glyph-name="acircumflex" unicode="&#xe2;" horiz-adv-x="581" 
d="M466 629l-59 -55l-107 73l-107 -73l-59 55l111 111q23 23 55 23t55 -23zM534 32q-82 -42 -243 -42q-267 0 -267 180q0 94 91 141q71 36 210 48v16q0 39 -70 39q-74 0 -152 -33l-46 125q114 43 242 43q235 0 235 -219v-298zM325 115v146q-94 -4 -94 -81q0 -68 69 -68
q19 0 25 3z" />
    <glyph glyph-name="atilde" unicode="&#xe3;" horiz-adv-x="581" 
d="M471 648q-19 -52 -89 -57q-33 -2 -82 20.5t-73 20.5q-50 -4 -72 -55l-38 97q27 57 90 62q32 3 80 -20t72 -21q53 4 74 51zM534 32q-82 -42 -243 -42q-267 0 -267 180q0 94 91 141q71 36 210 48v16q0 39 -70 39q-74 0 -152 -33l-46 125q114 43 242 43q235 0 235 -219v-298
zM325 115v146q-94 -4 -94 -81q0 -68 69 -68q19 0 25 3z" />
    <glyph glyph-name="adieresis" unicode="&#xe4;" horiz-adv-x="581" 
d="M506 665q0 -33 -27.5 -55.5t-65.5 -22.5q-37 0 -64 22.5t-27 55.5t27 55.5t64 22.5q38 0 65.5 -22.5t27.5 -55.5zM281 665q0 -33 -27.5 -55.5t-65.5 -22.5q-37 0 -64 22.5t-27 55.5t27 55.5t64 22.5q38 0 65.5 -22.5t27.5 -55.5zM534 32q-82 -42 -243 -42
q-267 0 -267 180q0 94 91 141q71 36 210 48v16q0 39 -70 39q-74 0 -152 -33l-46 125q114 43 242 43q235 0 235 -219v-298zM325 115v146q-94 -4 -94 -81q0 -68 69 -68q19 0 25 3z" />
    <glyph glyph-name="aring" unicode="&#xe5;" horiz-adv-x="581" 
d="M396 678q0 -40 -28 -68.5t-68 -28.5t-68 28t-28 68t28 68.5t68 28.5t68 -28t28 -68zM534 32q-82 -42 -243 -42q-267 0 -267 180q0 94 91 141q71 36 210 48v16q0 39 -70 39q-74 0 -152 -33l-46 125q114 43 242 43q235 0 235 -219v-298zM336 677q0 15 -10.5 25.5
t-25.5 10.5t-25.5 -10.5t-10.5 -25.5q0 -14 10.5 -24.5t25.5 -10.5t25.5 10.5t10.5 24.5zM325 114v147q-94 -4 -94 -81q0 -68 69 -68q19 0 25 2z" />
    <glyph glyph-name="ae" unicode="&#xe6;" horiz-adv-x="855" 
d="M824 235l-301 -41q17 -55 91 -55q86 0 142 26l49 -133q-89 -42 -226 -42q-87 0 -151 60q-50 -60 -169 -60q-109 0 -170 43q-65 46 -65 137q0 92 87 139q68 37 204 50v16q0 39 -64 39q-71 0 -151 -33l-46 125q111 43 237 43q91 0 136 -51q64 51 148 51q124 0 189 -77
q61 -73 61 -204q0 -16 -1 -33zM619 318q0 105 -57 105q-61 0 -55 -121zM315 157v104q-90 -8 -90 -82q0 -66 46 -66q44 0 44 44z" />
    <glyph glyph-name="ccedilla" unicode="&#xe7;" horiz-adv-x="429" 
d="M412 32q-44 -42 -143 -42q-107 0 -171 71q-68 76 -68 212q0 132 73 208q65 68 162 68t145 -42l-43 -121q-20 17 -47 17q-64 0 -64 -129q0 -128 64 -128q29 0 47 18zM373 -123q0 -46 -56 -71t-156 -25q-43 0 -92 5l34 63q26 -3 49 -3q88 0 88 29q0 21 -57 21q-23 0 -56 -3
l32 56q39 3 70 3q144 0 144 -75z" />
    <glyph glyph-name="egrave" unicode="&#xe8;" horiz-adv-x="581" 
d="M380 591h-121l-143 143q14 32 87 32q67 0 110 -25zM550 237l-307 -42q19 -55 96 -55q87 0 147 27l48 -135q-91 -42 -225 -42q-135 0 -210 84q-69 76 -69 197q0 123 66 197q71 81 203 81q125 0 190 -77q62 -72 62 -200q0 -17 -1 -35zM344 317q0 105 -55 105q-64 0 -64 -95
q0 -14 2 -29z" />
    <glyph glyph-name="eacute" unicode="&#xe9;" horiz-adv-x="581" 
d="M491 734l-143 -143h-121l66 150q44 25 111 25q73 0 87 -32zM550 237l-307 -42q19 -55 96 -55q87 0 147 27l48 -135q-91 -42 -225 -42q-135 0 -210 84q-69 76 -69 197q0 123 66 197q71 81 203 81q125 0 190 -77q62 -72 62 -200q0 -17 -1 -35zM344 317q0 105 -55 105
q-64 0 -64 -95q0 -14 2 -29z" />
    <glyph glyph-name="ecircumflex" unicode="&#xea;" horiz-adv-x="581" 
d="M462 629l-59 -55l-107 73l-107 -73l-59 55l111 111q23 23 55 23t55 -23zM550 237l-307 -42q19 -55 96 -55q87 0 147 27l48 -135q-91 -42 -225 -42q-135 0 -210 84q-69 76 -69 197q0 123 66 197q71 81 203 81q125 0 190 -77q62 -72 62 -200q0 -17 -1 -35zM344 317
q0 105 -55 105q-64 0 -64 -95q0 -14 2 -29z" />
    <glyph glyph-name="edieresis" unicode="&#xeb;" horiz-adv-x="581" 
d="M501 665q0 -33 -27.5 -55.5t-64.5 -22.5q-38 0 -65 22.5t-27 55.5t27 55.5t65 22.5q37 0 64.5 -22.5t27.5 -55.5zM277 665q0 -33 -27.5 -55.5t-65.5 -22.5q-37 0 -64 22.5t-27 55.5t27 55.5t64 22.5q38 0 65.5 -22.5t27.5 -55.5zM550 237l-307 -42q19 -55 96 -55
q87 0 147 27l48 -135q-91 -42 -225 -42q-135 0 -210 84q-69 76 -69 197q0 123 66 197q71 81 203 81q125 0 190 -77q62 -72 62 -200q0 -17 -1 -35zM344 317q0 105 -55 105q-64 0 -64 -95q0 -14 2 -29z" />
    <glyph glyph-name="igrave" unicode="&#xec;" horiz-adv-x="318" 
d="M251 591h-121l-143 143q14 32 87 32q67 0 111 -25zM271 0h-224v539h224v-539z" />
    <glyph glyph-name="iacute" unicode="&#xed;" horiz-adv-x="318" 
d="M331 734l-143 -143h-121l66 150q44 25 111 25q73 0 87 -32zM271 0h-224v539h224v-539z" />
    <glyph glyph-name="icircumflex" unicode="&#xee;" horiz-adv-x="318" 
d="M325 629l-59 -55l-107 73l-107 -73l-59 55l111 111q23 23 55 23t55 -23zM271 0h-224v539h224v-539z" />
    <glyph glyph-name="idieresis" unicode="&#xef;" horiz-adv-x="318" 
d="M363 665q0 -33 -27.5 -55.5t-64.5 -22.5q-38 0 -64.5 22.5t-26.5 55.5t26.5 55.5t64.5 22.5q37 0 64.5 -22.5t27.5 -55.5zM138 665q0 -33 -27 -55.5t-65 -22.5t-64.5 22.5t-26.5 55.5t26.5 55.5t64.5 22.5t65 -22.5t27 -55.5zM270 0h-224v539h224v-539z" />
    <glyph glyph-name="eth" unicode="&#xf0;" horiz-adv-x="604" 
d="M568 280q0 -132 -72.5 -211t-195.5 -79t-196.5 78t-73.5 202q0 123 68 201t170 78q12 0 26 -2q-13 35 -34 64l-91 -31q-24 44 -58 81l85 28q-19 22 -50 49l192 61q35 -29 49 -46l83 27q36 -40 61 -79l-83 -28q120 -186 120 -393zM346 281q0 84 -18 134q-9 3 -19 3
q-29 0 -40 -22q-17 -31 -17 -118q0 -75 10.5 -104.5t37.5 -29.5q46 0 46 137z" />
    <glyph glyph-name="ntilde" unicode="&#xf1;" horiz-adv-x="620" 
d="M486 648q-19 -52 -89 -57q-33 -2 -82 20.5t-73 20.5q-50 -4 -72 -55l-38 97q27 57 90 62q32 3 80 -20t72 -21q53 4 74 51zM573 0h-224v366q0 46 -48 46q-9 0 -30 -3v-409h-224v508q101 41 254 41q272 0 272 -181v-368z" />
    <glyph glyph-name="ograve" unicode="&#xf2;" horiz-adv-x="590" 
d="M379 591h-121l-143 143q14 32 87 32q67 0 110 -25zM560 270q0 -125 -70 -201q-73 -79 -195 -79t-195 79q-70 76 -70 201q0 124 71.5 201.5t193.5 77.5t195 -79q70 -76 70 -200zM338 274q0 136 -43 136t-43 -136q0 -134 43 -134t43 134z" />
    <glyph glyph-name="oacute" unicode="&#xf3;" horiz-adv-x="590" 
d="M485 734l-143 -143h-121l66 150q44 25 111 25q73 0 87 -32zM560 270q0 -125 -70 -201q-73 -79 -195 -79t-195 79q-70 76 -70 201q0 124 71.5 201.5t193.5 77.5t195 -79q70 -76 70 -200zM338 274q0 136 -43 136t-43 -136q0 -134 43 -134t43 134z" />
    <glyph glyph-name="ocircumflex" unicode="&#xf4;" horiz-adv-x="590" 
d="M461 629l-59 -55l-107 73l-107 -73l-59 55l111 111q23 23 55 23t55 -23zM560 270q0 -125 -70 -201q-73 -79 -195 -79t-195 79q-70 76 -70 201q0 124 71.5 201.5t193.5 77.5t195 -79q70 -76 70 -200zM338 274q0 136 -43 136t-43 -136q0 -134 43 -134t43 134z" />
    <glyph glyph-name="otilde" unicode="&#xf5;" horiz-adv-x="590" 
d="M472 648q-19 -52 -89 -57q-33 -2 -82 20.5t-73 20.5q-50 -4 -72 -55l-38 97q27 57 90 62q32 3 80 -20t72 -21q53 4 74 51zM560 270q0 -125 -70 -201q-73 -79 -195 -79t-195 79q-70 76 -70 201q0 124 71.5 201.5t193.5 77.5t195 -79q70 -76 70 -200zM338 274
q0 136 -43 136t-43 -136q0 -134 43 -134t43 134z" />
    <glyph glyph-name="odieresis" unicode="&#xf6;" horiz-adv-x="590" 
d="M499 665q0 -33 -27.5 -55.5t-64.5 -22.5q-38 0 -64.5 22.5t-26.5 55.5t26.5 55.5t64.5 22.5q37 0 64.5 -22.5t27.5 -55.5zM274 665q0 -33 -27.5 -55.5t-64.5 -22.5q-38 0 -64.5 22.5t-26.5 55.5t26.5 55.5t64.5 22.5q37 0 64.5 -22.5t27.5 -55.5zM560 270
q0 -125 -70 -201q-73 -79 -195 -79t-195 79q-70 76 -70 201q0 124 71.5 201.5t193.5 77.5t195 -79q70 -76 70 -200zM338 274q0 136 -43 136t-43 -136q0 -134 43 -134t43 134z" />
    <glyph glyph-name="divide" unicode="&#xf7;" 
d="M381 494q0 -34 -23.5 -57.5t-57.5 -23.5t-57.5 23.5t-23.5 57.5t23.5 57.5t57.5 23.5t57.5 -23.5t23.5 -57.5zM513 280h-426v98h426v-98zM381 164q0 -34 -23.5 -57.5t-57.5 -23.5t-57.5 23.5t-23.5 57.5q0 33 23.5 57t57.5 24t57.5 -24t23.5 -57z" />
    <glyph glyph-name="oslash" unicode="&#xf8;" horiz-adv-x="598" 
d="M568 270q0 -124 -73 -202t-196 -78q-66 0 -122 25l-48 -85l-44 25l50 85q-105 77 -105 230q0 123 73.5 201t195.5 78q64 0 116 -23l47 82l44 -25l-47 -81q109 -77 109 -232zM341 398q-16 28 -42 28q-65 0 -65 -151q0 -31 3 -57zM364 274q0 34 -4 58l-104 -180
q17 -28 43 -28q65 0 65 150z" />
    <glyph glyph-name="ugrave" unicode="&#xf9;" horiz-adv-x="615" 
d="M396 591h-121l-143 143q14 32 87 32q67 0 110 -25zM568 32q-88 -42 -260 -42q-133 0 -194 43q-67 47 -67 156v350h224v-368q0 -33 39 -33q19 0 34 5v396h224v-507z" />
    <glyph glyph-name="uacute" unicode="&#xfa;" horiz-adv-x="615" 
d="M497 734l-143 -143h-121l66 150q44 25 111 25q73 0 87 -32zM568 32q-88 -42 -260 -42q-133 0 -194 43q-67 47 -67 156v350h224v-368q0 -33 39 -33q19 0 34 5v396h224v-507z" />
    <glyph glyph-name="ucircumflex" unicode="&#xfb;" horiz-adv-x="615" 
d="M473 629l-59 -55l-107 73l-106 -73l-60 55l111 111q23 23 55 23q33 0 56 -23zM568 32q-88 -42 -260 -42q-133 0 -194 43q-67 47 -67 156v350h224v-368q0 -33 39 -33q19 0 34 5v396h224v-507z" />
    <glyph glyph-name="udieresis" unicode="&#xfc;" horiz-adv-x="615" 
d="M512 665q0 -33 -27.5 -55.5t-65.5 -22.5q-37 0 -64 22.5t-27 55.5t27 55.5t64 22.5q38 0 65.5 -22.5t27.5 -55.5zM287 665q0 -33 -27.5 -55.5t-65.5 -22.5q-37 0 -64 22.5t-27 55.5t27 55.5t64 22.5q38 0 65.5 -22.5t27.5 -55.5zM568 32q-88 -42 -260 -42q-133 0 -194 43
q-67 47 -67 156v350h224v-368q0 -33 39 -33q19 0 34 5v396h224v-507z" />
    <glyph glyph-name="yacute" unicode="&#xfd;" horiz-adv-x="556" 
d="M474 734l-143 -143h-121l66 150q44 25 111 25q73 0 87 -32zM557 539l-238 -754h-236l92 215l-176 539h236l52 -305h1l58 305h211z" />
    <glyph glyph-name="thorn" unicode="&#xfe;" horiz-adv-x="614" 
d="M584 289q0 -135 -71.5 -214.5t-177.5 -79.5q-40 0 -64 6v-216h-224v1000h224v-253q43 15 87 15q94 0 156 -62q70 -70 70 -196zM363 272q0 83 -17 116q-16 28 -54 28q-9 0 -21 -2v-285q8 -3 17 -3q75 0 75 146z" />
    <glyph glyph-name="ydieresis" unicode="&#xff;" horiz-adv-x="556" 
d="M495 665q0 -33 -27.5 -55.5t-65.5 -22.5q-37 0 -64 22.5t-27 55.5t27 55.5t64 22.5q38 0 65.5 -22.5t27.5 -55.5zM270 665q0 -33 -27.5 -55.5t-65.5 -22.5q-37 0 -64 22.5t-27 55.5t27 55.5t64 22.5q38 0 65.5 -22.5t27.5 -55.5zM557 539l-238 -754h-236l92 215l-176 539
h236l52 -305h1l58 305h211z" />
    <glyph glyph-name="dotlessi" unicode="&#x131;" horiz-adv-x="318" 
d="M271 0h-224v539h224v-539z" />
    <glyph glyph-name="Lslash" unicode="&#x141;" horiz-adv-x="469" 
d="M441 0h-375v312l-43 -19v128l43 19v248h233v-171l70 29v-129l-70 -28v-234h142v-155z" />
    <glyph glyph-name="lslash" unicode="&#x142;" horiz-adv-x="371" 
d="M363 419l-65 -30v-389h-224v315l-50 -24v129l50 24v341h224v-268l65 31v-129z" />
    <glyph glyph-name="OE" unicode="&#x152;" horiz-adv-x="780" 
d="M743 0h-327q-34 -10 -82 -10q-300 0 -300 354t298 354q45 0 87 -10h324v-155h-151v-111h127v-151h-127v-116h151v-155zM376 150v397q-15 5 -30 5q-42 0 -60 -53q-16 -48 -16 -150q0 -203 76 -203q18 0 30 4z" />
    <glyph glyph-name="oe" unicode="&#x153;" horiz-adv-x="868" 
d="M837 233l-301 -41q17 -53 88 -53q84 0 146 27l48 -134q-86 -42 -226 -42q-103 0 -155 61q-63 -61 -148 -61q-120 0 -189.5 78t-69.5 202q0 123 70.5 201t188.5 78q90 0 146 -59q23 25 65.5 42t86.5 17q125 0 190 -78q61 -73 61 -204q0 -17 -1 -34zM633 318q0 105 -58 105
q-57 0 -57 -89q0 -15 2 -32zM334 274q0 136 -45 136t-45 -135t45 -135t45 134z" />
    <glyph glyph-name="Scaron" unicode="&#x160;" horiz-adv-x="502" 
d="M427 860l-112 -111q-23 -23 -57 -23t-57 23l-112 111l58 54l111 -76l111 76zM473 218q0 -97 -71 -162.5t-183 -65.5q-135 0 -200 43l51 163q42 -33 101 -33q54 0 54 37q0 35 -71 71q-128 65 -128 196q0 98 67 164.5t176 66.5q110 0 181 -42l-47 -141q-48 28 -97 28
q-53 0 -53 -38q0 -37 73 -74q89 -45 122 -101q25 -43 25 -112z" />
    <glyph glyph-name="scaron" unicode="&#x161;" horiz-adv-x="449" 
d="M397 712l-112 -112q-22 -22 -57 -22t-57 22l-112 112l58 54l111 -77l111 77zM423 173q0 -83 -60.5 -133t-168.5 -50q-110 0 -178 42l56 140q41 -31 87 -31q33 0 33 25q0 28 -48 49q-115 49 -115 150q0 79 55.5 131.5t143.5 52.5q108 0 183 -42l-53 -125q-33 27 -74 27
q-35 0 -35 -28q0 -30 48 -52q73 -33 102 -73q24 -32 24 -83z" />
    <glyph glyph-name="Ydieresis" unicode="&#x178;" horiz-adv-x="562" 
d="M497 808q0 -33 -27.5 -55.5t-65.5 -22.5q-37 0 -64 22.5t-27 55.5t27 56t64 23q38 0 65.5 -23t27.5 -56zM272 808q0 -33 -27.5 -55.5t-65.5 -22.5q-37 0 -64 22.5t-27 55.5t27 56t64 23q38 0 65.5 -23t27.5 -56zM576 688l-181 -415v-273h-232v273l-177 415h246l61 -209h1
l66 209h216z" />
    <glyph glyph-name="Zcaron" unicode="&#x17d;" horiz-adv-x="510" 
d="M428 860l-112 -111q-23 -23 -57 -23t-57 23l-112 111l58 54l111 -76l111 76zM475 0h-465l177 533h-147v155h434l-165 -533h166v-155z" />
    <glyph glyph-name="zcaron" unicode="&#x17e;" horiz-adv-x="461" 
d="M403 712l-112 -112q-22 -22 -57 -22t-57 22l-112 112l58 54l111 -77l111 77zM433 0h-413l140 392h-120v147h393l-126 -392h126v-147z" />
    <glyph glyph-name="florin" unicode="&#x192;" horiz-adv-x="649" 
d="M624 673l-25 -141q-32 15 -61 15q-50 0 -60 -57l-13 -71h102v-147h-132l-59 -285q-21 -101 -84.5 -154.5t-154.5 -53.5q-79 0 -141 33l28 155q29 -23 68 -23q26 0 38 12q16 16 26 64l52 252h-102v147h132q6 25 17 78q22 99 61 142q54 59 164 59q82 0 144 -25z" />
    <glyph glyph-name="circumflex" unicode="&#x2c6;" horiz-adv-x="300" 
d="M316 629l-59 -55l-107 73l-107 -73l-59 55l111 111q23 23 55 23t55 -23z" />
    <glyph glyph-name="caron" unicode="&#x2c7;" horiz-adv-x="300" 
d="M319 712l-112 -112q-22 -22 -57 -22t-57 22l-112 112l58 54l111 -77l111 77z" />
    <glyph glyph-name="breve" unicode="&#x2d8;" horiz-adv-x="300" 
d="M308 751q0 -63 -31 -107q-41 -58 -126 -58q-86 0 -127 58q-32 44 -32 107l72 17q21 -73 86 -73q30 0 49 15t38 58z" />
    <glyph glyph-name="dotaccent" unicode="&#x2d9;" horiz-adv-x="300" 
d="M248 693q0 -40 -28.5 -69t-69.5 -29q-40 0 -69 29t-29 69q0 41 29 69.5t69 28.5q41 0 69.5 -28.5t28.5 -69.5z" />
    <glyph glyph-name="ring" unicode="&#x2da;" horiz-adv-x="300" 
d="M246 678q0 -40 -28 -68.5t-68 -28.5t-68 28t-28 68t28 68.5t68 28.5t68 -28t28 -68zM186 677q0 15 -10.5 25.5t-25.5 10.5t-25.5 -10.5t-10.5 -25.5q0 -14 10.5 -24.5t25.5 -10.5t25.5 10.5t10.5 24.5z" />
    <glyph glyph-name="ogonek" unicode="&#x2db;" horiz-adv-x="300" 
d="M334 -164q-68 -41 -144 -41q-100 0 -100 74q0 82 117 138h110q-97 -55 -97 -108q0 -22 29 -22q23 0 61 16z" />
    <glyph glyph-name="tilde" unicode="&#x2dc;" horiz-adv-x="300" 
d="M327 648q-19 -52 -89 -57q-33 -2 -82 20.5t-74 20.5q-49 -4 -71 -55l-38 97q27 57 89 62q32 3 80.5 -20t72.5 -21q53 4 74 51z" />
    <glyph glyph-name="hungarumlaut" unicode="&#x2dd;" horiz-adv-x="300" 
d="M335 721l-113 -130h-70l55 130q34 30 78 30t50 -30zM175 721l-113 -130h-70l55 130q34 30 78 30t50 -30z" />
    <glyph glyph-name="Delta" unicode="&#x394;" horiz-adv-x="641" 
d="M651 0h-661l212 688h236zM385 132l-74 341h-2l-12 -65l-65 -276h153z" />
    <glyph glyph-name="Delta" unicode="&#x2206;" horiz-adv-x="641" 
d="M651 0h-661l212 688h236zM385 132l-74 341h-2l-12 -65l-65 -276h153z" />
    <glyph glyph-name="Omega" unicode="&#x3a9;" horiz-adv-x="729" 
d="M699 0h-317q57 171 57 386q0 161 -74 161q-76 0 -76 -161q0 -218 58 -386h-317v156h103q-27 48 -46 114q-23 75 -23 130q0 128 74 209q81 89 227 89t227 -89q73 -81 73 -209q0 -56 -23 -130q-20 -65 -47 -114h104v-156z" />
    <glyph glyph-name="Omega" unicode="&#x2126;" horiz-adv-x="729" 
d="M699 0h-317q57 171 57 386q0 161 -74 161q-76 0 -76 -161q0 -218 58 -386h-317v156h103q-27 48 -46 114q-23 75 -23 130q0 128 74 209q81 89 227 89t227 -89q73 -81 73 -209q0 -56 -23 -130q-20 -65 -47 -114h104v-156z" />
    <glyph glyph-name="pi" unicode="&#x3c0;" horiz-adv-x="722" 
d="M681 0q-41 -5 -77 -5q-128 0 -177 65q-30 40 -30 114v229h-78v-403h-224l1 403h-61v136h646v-136h-60v-209q0 -28 10 -39q13 -16 50 -12v-143z" />
    <glyph glyph-name="endash" unicode="&#x2013;" horiz-adv-x="440" 
d="M440 273h-440v124h440v-124z" />
    <glyph glyph-name="emdash" unicode="&#x2014;" horiz-adv-x="880" 
d="M880 282h-880v105h880v-105z" />
    <glyph glyph-name="quoteleft" unicode="&#x2018;" horiz-adv-x="355" 
d="M335 785l-99 -330q-41 -66 -118 -66q-71 0 -83 66l186 330h114z" />
    <glyph glyph-name="quoteright" unicode="&#x2019;" horiz-adv-x="355" 
d="M320 727l-186 -330h-114l99 330q41 67 118 67q71 0 83 -67z" />
    <glyph glyph-name="quotesinglbase" unicode="&#x201a;" horiz-adv-x="355" 
d="M320 161l-186 -330h-114l99 330q41 67 118 67q71 0 83 -67z" />
    <glyph glyph-name="quotedblleft" unicode="&#x201c;" horiz-adv-x="613" 
d="M593 785l-99 -330q-41 -66 -118 -66q-73 0 -83 66l186 330h114zM335 785l-99 -330q-41 -66 -118 -66q-71 0 -83 66l186 330h114z" />
    <glyph glyph-name="quotedblright" unicode="&#x201d;" horiz-adv-x="613" 
d="M578 727l-186 -330h-114l99 330q41 67 118 67q71 0 83 -67zM320 727l-186 -330h-114l99 330q41 67 118 67q73 0 83 -67z" />
    <glyph glyph-name="quotedblbase" unicode="&#x201e;" horiz-adv-x="613" 
d="M578 161l-186 -330h-114l99 330q41 67 118 67q71 0 83 -67zM320 161l-186 -330h-114l99 330q41 67 118 67q73 0 83 -67z" />
    <glyph glyph-name="dagger" unicode="&#x2020;" horiz-adv-x="654" 
d="M624 321l-198 16l16 -552h-230l16 552l-198 -16v226l198 -16l-16 254h230l-16 -254l198 16v-226z" />
    <glyph glyph-name="daggerdbl" unicode="&#x2021;" horiz-adv-x="654" 
d="M624 42l-201 9l12 -266h-216l12 266l-201 -9v175l201 -9l-1 85l1 84l-201 -9v176l201 -10l-12 251h216l-12 -251l201 10v-176l-201 9l1 -84l-1 -85l201 9v-175z" />
    <glyph glyph-name="bullet" unicode="&#x2022;" horiz-adv-x="460" 
d="M420 369q0 -79 -55.5 -134.5t-134.5 -55.5t-134.5 55.5t-55.5 134.5t55.5 134.5t134.5 55.5t134.5 -55.5t55.5 -134.5z" />
    <glyph glyph-name="ellipsis" unicode="&#x2026;" horiz-adv-x="1020" 
d="M970 109q0 -50 -35 -85.5t-85 -35.5q-49 0 -84.5 35.5t-35.5 84.5q0 50 35 85.5t85 35.5t85 -35t35 -85zM630 109q0 -50 -35 -85.5t-85 -35.5q-49 0 -84.5 35.5t-35.5 84.5q0 50 35 85.5t85 35.5t85 -35t35 -85zM290 109q0 -50 -35 -85.5t-85 -35.5q-49 0 -84.5 35.5
t-35.5 84.5q0 50 35 85.5t85 35.5t85 -35t35 -85z" />
    <glyph glyph-name="perthousand" unicode="&#x2030;" horiz-adv-x="1294" 
d="M1249 228q0 -97 -33 -158q-43 -80 -137 -80t-137 80q-33 61 -33 158q0 98 33 159q43 81 137 81t137 -81q33 -61 33 -159zM877 228q0 -96 -33 -157q-43 -80 -137 -80t-137 80q-33 61 -33 157q0 98 33 160q43 81 137 81t137 -81q33 -62 33 -160zM632 674l-236 -686l-106 25
l236 687zM385 457q0 -97 -33 -158q-43 -80 -137 -80t-137 80q-33 61 -33 158q0 98 33 160q43 81 137 81t137 -81q33 -62 33 -160zM1110 234q0 141 -31 141t-31 -141q0 -139 31 -139t31 139zM738 235q0 140 -31 140t-31 -140t31 -140t31 140zM246 463q0 141 -31 141t-31 -141
q0 -139 31 -139t31 139z" />
    <glyph glyph-name="guilsinglleft" unicode="&#x2039;" horiz-adv-x="329" 
d="M289 147l-123 -68l-146 255l146 256l123 -68l-107 -188z" />
    <glyph glyph-name="guilsinglright" unicode="&#x203a;" horiz-adv-x="329" 
d="M309 334l-146 -255l-123 68l107 187l-107 188l123 68z" />
    <glyph glyph-name="fraction" unicode="&#x2044;" horiz-adv-x="204" 
d="M304 682l-290 -720l-114 45l290 720z" />
    <glyph glyph-name="trademark" unicode="&#x2122;" horiz-adv-x="780" 
d="M746 350h-96l-27 219l-62 -219h-85l-64 217l-24 -217h-97l55 338h117l58 -216l52 216h118zM302 614h-87v-264h-98v264h-89v74h274v-74z" />
    <glyph glyph-name="partialdiff" unicode="&#x2202;" 
d="M570 343q0 -138 -66 -232q-85 -120 -257 -120q-97 0 -157 49t-60 134q0 133 94 206q78 61 181 61q19 0 36 -3q-43 97 -188 110l70 149q136 -15 236 -106q111 -102 111 -248zM362 330q-11 2 -21 2q-48 0 -76.5 -39t-28.5 -100t34 -61q40 0 67 62q25 58 25 136z" />
    <glyph glyph-name="product" unicode="&#x220f;" horiz-adv-x="780" 
d="M746 344q0 -148 -104.5 -252t-251.5 -104t-251.5 104t-104.5 252t104.5 252t251.5 104t251.5 -104.5t104.5 -251.5zM666 344q0 115 -80.5 197.5t-195.5 82.5t-195.5 -82.5t-80.5 -197.5t80 -196.5t196 -81.5t196 81.5t80 196.5zM556 430q0 -63 -45 -99.5t-120 -36.5
q-13 0 -27 1v-155h-87v398q53 27 119 27q73 0 116.5 -36.5t43.5 -98.5zM469 429q0 64 -77 64q-17 0 -28 -4v-123q48 -5 76.5 12t28.5 51z" />
    <glyph glyph-name="summation" unicode="&#x2211;" 
d="M565 -215h-548l247 471l-238 432h527v-151h-197l144 -254l-177 -323h242v-175z" />
    <glyph glyph-name="radical" unicode="&#x221a;" 
d="M600 785l-188 -785h-198l-125 363h-79v133h237l58 -234h2l98 523h195z" />
    <glyph glyph-name="infinity" unicode="&#x221e;" horiz-adv-x="834" 
d="M794 339q0 -86 -51 -143q-54 -59 -142 -59q-114 0 -184 88q-41 -48 -79 -67q-41 -21 -100 -21q-91 0 -144.5 56.5t-53.5 145.5q0 85 54.5 143.5t143.5 58.5q56 0 99 -24q36 -20 79 -67q76 91 181 91q89 0 145 -60q52 -58 52 -142zM654 341q0 22 -16 38t-41 16
q-43 0 -85 -53q43 -51 86 -51q56 0 56 50zM320 334q-43 51 -85 51q-26 0 -41.5 -15t-15.5 -37q0 -20 16.5 -36t40.5 -16q40 0 85 53z" />
    <glyph glyph-name="integral" unicode="&#x222b;" 
d="M543 641q-13 1 -23 1q-58 0 -58 -55v-579q0 -106 -67.5 -166.5t-177.5 -60.5q-29 0 -60 5v143q13 -1 23 -1q58 0 58 55v579q0 106 69 167q66 60 176 60q29 0 60 -5v-143z" />
    <glyph glyph-name="approxequal" unicode="&#x2248;" 
d="M513 398q-48 -46 -123 -46q-35 0 -90.5 25.5t-90.5 25.5q-73 0 -122 -47v141q44 42 122 42q36 0 91 -25.5t90 -25.5q80 0 123 50v-140zM513 158q-48 -46 -123 -46q-35 0 -90.5 25.5t-90.5 25.5q-73 0 -122 -47v141q44 42 122 42q36 0 91 -25.5t90 -25.5q80 0 123 50v-140
z" />
    <glyph glyph-name="approxequal" unicode="&#x22f2;" 
d="M513 398q-48 -46 -123 -46q-35 0 -90.5 25.5t-90.5 25.5q-73 0 -122 -47v141q44 42 122 42q36 0 91 -25.5t90 -25.5q80 0 123 50v-140zM513 158q-48 -46 -123 -46q-35 0 -90.5 25.5t-90.5 25.5q-73 0 -122 -47v141q44 42 122 42q36 0 91 -25.5t90 -25.5q80 0 123 50v-140
z" />
    <glyph glyph-name="notequal" unicode="&#x2260;" 
d="M513 158h-250l-62 -117l-85 44l39 73h-68v126h135l48 90h-183v126h250l60 113l85 -44l-37 -69h68v-126h-135l-48 -90h183v-126z" />
    <glyph glyph-name="lessequal" unicode="&#x2264;" 
d="M513 213l-426 143v104l426 142v-125l-253 -69l253 -70v-125zM513 56h-426v116h426v-116z" />
    <glyph glyph-name="greaterequal" unicode="&#x2265;" 
d="M513 356l-426 -143v125l253 70l-253 69v125l426 -142v-104zM513 56h-426v116h426v-116z" />
    <glyph glyph-name="lozenge" unicode="&#x25ca;" horiz-adv-x="624" 
d="M594 344l-282 -348l-282 348l282 348zM429 336l-124 153l-111 -136l125 -154z" />
    <glyph glyph-name="fi" unicode="&#xf001;" horiz-adv-x="686" 
d="M642 696q0 -41 -34 -69.5t-83 -28.5t-83 28.5t-34 69.5t34 69.5t83 28.5t83 -28.5t34 -69.5zM639 0h-224v539h224v-539zM377 392h-72v-392h-224v392h-55v147h55v34q0 104 64 161q61 55 167 55q31 0 65 -5v-142q-12 1 -21 1q-51 0 -51 -55v-49h72v-147z" />
    <glyph glyph-name="fl" unicode="&#xf002;" horiz-adv-x="689" 
d="M642 0h-224v785h224v-785zM377 392h-72v-392h-224v392h-55v147h55v34q0 104 64 161q61 55 167 55q31 0 65 -5v-142q-12 1 -21 1q-51 0 -51 -55v-49h72v-147z" />
    </font>
</defs>
</svg>
